<svg width="187" height="199" viewBox="0 0 187 199" fill="none" xmlns="http://www.w3.org/2000/svg">
<path d="M5.81549 136.282L40.0174 127.78L28.2346 142.33L29.8166 162.085L5.81549 136.282Z" fill="#BFF747"/>
<path d="M17.8422 136.519C17.7057 136.739 17.8333 137.141 18.2169 137.662C18.4173 137.94 18.6708 138.237 18.9774 138.553C19.126 138.724 19.3012 138.904 19.5029 139.094L19.7922 139.373C19.9063 139.473 19.9939 139.563 20.108 139.662C20.5645 140.06 21.0741 140.476 21.6367 140.911C21.7773 141.02 21.918 141.128 22.0852 141.246C22.2258 141.355 22.393 141.473 22.5602 141.591C22.868 141.818 23.2117 142.027 23.5726 142.272C24.2771 142.727 25.0162 143.253 25.8627 143.728C26.2859 143.965 26.6999 144.228 27.1497 144.475C27.3699 144.611 27.5994 144.721 27.8197 144.858C28.0399 144.994 28.2695 145.104 28.5255 145.224C32.2749 147.189 37.0111 149.141 42.4567 150.598C42.8109 150.692 43.1293 150.803 43.4928 150.87L44.5381 151.116C45.2558 151.278 45.9377 151.457 46.6911 151.601C47.418 151.736 48.1715 151.88 48.8984 152.015C49.2619 152.082 49.6519 152.159 50.0154 152.226C50.3881 152.267 50.7781 152.344 51.1508 152.385C51.5236 152.426 51.9136 152.503 52.2863 152.544C52.6856 152.594 53.049 152.661 53.4576 152.685C54.2296 152.776 55.0109 152.841 55.8094 152.941C56.0137 152.953 56.2087 152.991 56.413 153.003L56.9542 153.073C57.3627 153.097 57.7447 153.111 58.1533 153.135C58.5618 153.158 58.9703 153.182 59.3523 153.197C59.7609 153.22 60.1787 153.217 60.5607 153.232C60.9692 153.255 61.4494 153.245 61.9468 153.27C62.2134 153.273 62.48 153.277 62.7732 153.29C63.0663 153.303 63.3687 153.29 63.6711 153.277C64.3025 153.259 64.9869 153.26 65.7071 153.244C65.8849 153.246 66.0626 153.249 66.2761 153.234C66.4631 153.21 66.6674 153.222 66.8544 153.198C67.2457 153.186 67.6462 153.147 68.0641 153.144C71.3998 152.97 75.53 152.567 80.2542 151.658C81.4398 151.417 82.652 151.186 83.9186 150.884C84.5512 150.777 85.1759 150.609 85.827 150.449C86.4517 150.28 87.1121 150.094 87.7726 149.908C88.1028 149.815 88.433 149.722 88.7632 149.629C88.9237 149.596 89.0935 149.536 89.2632 149.476C89.4329 149.417 89.5934 149.383 89.7632 149.324C90.4329 149.111 91.1026 148.899 91.7989 148.695C92.1291 148.602 92.4778 148.456 92.8173 148.337C93.1568 148.217 93.4963 148.098 93.8358 147.978C94.5241 147.712 95.2296 147.482 95.9271 147.19C96.6247 146.898 97.3395 146.642 98.0635 146.359C98.2333 146.299 98.4123 146.213 98.5913 146.127C98.7703 146.04 98.9401 145.98 99.1191 145.894C99.4771 145.722 99.8259 145.575 100.21 145.412C100.569 145.239 100.944 145.103 101.302 144.93C101.66 144.757 102.018 144.585 102.376 144.412C102.734 144.24 103.092 144.067 103.459 143.868C103.638 143.781 103.817 143.695 104.006 143.582L104.292 143.444L104.552 143.297C105.277 142.925 106.012 142.527 106.747 142.128C106.935 142.016 107.114 141.929 107.302 141.817C107.49 141.704 107.669 141.617 107.858 141.505C108.225 141.305 108.575 141.07 108.952 140.845C109.328 140.619 109.696 140.42 110.046 140.185C110.396 139.95 110.772 139.724 111.122 139.489C111.472 139.254 111.849 139.029 112.208 138.767C112.397 138.654 112.585 138.542 112.747 138.419C112.935 138.307 113.106 138.158 113.294 138.045C114.013 137.522 114.749 137.035 115.467 136.512C115.827 136.251 116.186 135.989 116.555 135.701C116.914 135.44 117.256 135.142 117.615 134.881C119.045 133.773 120.449 132.566 121.845 131.297C123.241 130.029 124.593 128.715 125.903 127.267C127.203 125.846 128.469 124.353 129.657 122.743C129.973 122.348 130.237 121.934 130.527 121.529C130.818 121.125 131.081 120.711 131.381 120.279C131.645 119.865 131.918 119.425 132.181 119.011C132.318 118.791 132.445 118.597 132.582 118.377C132.718 118.156 132.855 117.936 132.965 117.707C133.968 115.943 134.901 114.126 135.71 112.235C135.904 111.767 136.133 111.281 136.326 110.813C136.493 110.335 136.696 109.841 136.863 109.363C137.259 108.4 137.549 107.4 137.865 106.409C138.041 105.904 138.155 105.408 138.305 104.895C138.445 104.408 138.568 103.885 138.718 103.372C138.832 102.876 138.955 102.353 139.051 101.821L139.231 101.051L139.27 100.856L139.308 100.661L139.385 100.271C139.481 99.7387 139.568 99.2333 139.665 98.7013L139.742 98.3113C139.762 98.1694 139.772 98.054 139.792 97.9121L139.892 97.1135C139.953 96.5989 140.023 96.0576 140.084 95.543C140.118 95.019 140.162 94.4685 140.196 93.9446L140.26 93.1634C140.264 92.8968 140.268 92.6301 140.272 92.3635C140.28 91.8303 140.287 91.2971 140.295 90.7639C140.299 90.4973 140.303 90.2306 140.28 89.9548L140.265 89.1457L140.25 88.3366L140.238 87.9453C140.222 87.8206 140.215 87.6694 140.199 87.5448C140.154 86.993 140.126 86.4771 140.08 85.9253C140.058 85.6494 140.061 85.3828 140.003 85.1242L139.899 84.3138C139.818 83.7793 139.763 83.2541 139.691 82.6931C139.61 82.1586 139.529 81.6241 139.421 81.0803C139.008 78.9411 138.443 76.8086 137.691 74.7C136.93 72.6179 135.982 70.5599 134.756 68.6134C133.531 66.6669 132.082 64.8504 130.345 63.261C130.231 63.1616 130.116 63.0621 130.029 62.972L129.687 62.6737C129.458 62.4749 129.247 62.3118 129.019 62.113C128.553 61.7419 128.025 61.3787 127.461 61.0328C126.897 60.6869 126.235 60.3663 125.51 60.1425C124.793 59.8922 123.987 59.7294 123.125 59.7259C122.325 59.7144 121.479 59.8355 120.639 60.1079C119.826 60.3895 119.082 60.8143 118.453 61.3385C117.823 61.8628 117.326 62.4334 116.908 63.0318C116.491 63.6303 116.162 64.23 115.887 64.8482C115.345 66.0581 115.043 67.2627 114.83 68.4685C114.653 69.657 114.565 70.8468 114.618 72.0565C114.632 72.3589 114.645 72.6613 114.659 72.9637L114.673 73.1773L114.697 73.3642L114.736 73.7648L114.84 74.5752L114.953 75.359C114.985 75.6084 115.034 75.8935 115.066 76.1428L115.206 76.9359C115.287 77.4704 115.404 77.9877 115.521 78.5049C115.98 80.6004 116.563 82.6798 117.316 84.6996C118.069 86.7193 118.965 88.6699 120.05 90.5077C124.289 97.9731 131.603 103.625 139.794 105.148C143.872 105.917 148.029 105.524 151.753 104.324C153.628 103.729 155.373 102.91 157.004 101.991C158.635 101.072 160.17 100.001 161.547 98.8744C164.361 96.6128 166.728 94.0158 168.721 91.3779C170.724 88.7135 172.399 85.9643 173.745 83.2193C173.919 82.8929 174.075 82.5308 174.249 82.2044C174.34 82.0279 174.396 81.8687 174.487 81.6923C174.552 81.5065 174.634 81.3566 174.699 81.1709C174.846 80.8352 174.993 80.4996 175.14 80.1639C175.287 79.8283 175.435 79.4926 175.555 79.1477C175.823 78.4671 176.081 77.8131 176.339 77.159C176.571 76.4957 176.803 75.8324 177.035 75.1691C177.917 72.5596 178.593 70.0271 179.125 67.6526C179.24 67.0676 179.365 66.4561 179.48 65.8711C179.595 65.2861 179.674 64.7184 179.78 64.1599C179.819 63.876 179.886 63.6015 179.925 63.3176C179.965 63.0337 179.995 62.7764 180.035 62.4925C180.105 61.9513 180.175 61.4101 180.236 60.8954C180.461 58.8009 180.622 56.8922 180.639 55.1413C180.645 54.697 180.669 54.2885 180.666 53.8706C180.663 53.4528 180.651 53.0615 180.665 52.6795C180.653 52.2882 180.658 51.9328 180.637 51.5681C180.642 51.2126 180.62 50.8478 180.59 50.5096C180.586 50.1807 180.555 49.8424 180.542 49.54C180.528 49.2376 180.515 48.9352 180.466 48.6501C180.42 48.0983 180.365 47.5731 180.319 47.1102C180.272 46.6473 180.207 46.2375 180.15 45.89C180.093 45.5425 180.043 45.2574 179.985 44.9987C179.876 44.5438 179.808 44.3118 179.728 44.2839C179.666 44.2919 179.609 44.54 179.567 45.0016C179.546 45.2324 179.533 45.5255 179.528 45.881C179.523 46.2365 179.535 46.6278 179.492 47.0894C179.486 47.5337 179.452 48.0577 179.435 48.6174C179.422 48.9106 179.409 49.2037 179.396 49.4969C179.382 49.79 179.36 50.1096 179.355 50.4651C179.333 50.7848 179.327 51.1403 179.296 51.4865C179.264 51.8327 179.25 52.2147 179.209 52.5874C179.168 52.9602 179.153 53.3422 179.13 53.7507C179.08 54.15 179.056 54.5585 178.996 54.9843C178.821 56.6795 178.554 58.5512 178.205 60.5728C178.118 61.0782 178.004 61.5744 177.907 62.1063C177.85 62.3544 177.811 62.6382 177.754 62.8863C177.688 63.1609 177.631 63.4089 177.565 63.6835C177.432 64.2327 177.336 64.7647 177.194 65.3404C177.062 65.8896 176.893 66.456 176.752 67.0318C176.132 69.3161 175.351 71.7227 174.4 74.1889C174.151 74.8164 173.911 75.4174 173.653 76.0714C173.377 76.6897 173.092 77.3344 172.817 77.9527C172.23 79.2064 171.624 80.5133 170.922 81.7565C169.561 84.2879 167.898 86.8328 165.935 89.2134C163.989 91.6297 161.734 93.9083 159.146 95.8621C156.558 97.8159 153.636 99.4449 150.449 100.386C148.861 100.843 147.212 101.13 145.549 101.204C145.122 101.233 144.713 101.21 144.295 101.212C144.082 101.227 143.878 101.215 143.673 101.203C143.469 101.192 143.265 101.18 143.034 101.159C142.599 101.126 142.2 101.076 141.774 101.016C141.357 100.93 140.932 100.871 140.515 100.785C137.192 100.07 133.961 98.4947 131.193 96.2771C129.796 95.1636 128.508 93.9095 127.354 92.5241C126.201 91.1386 125.183 89.6217 124.291 88C122.533 84.7659 121.296 81.1481 120.586 77.3868C120.513 76.9146 120.404 76.4597 120.34 75.961C120.267 75.4889 120.193 75.0167 120.147 74.5538L120.068 73.8416L119.989 73.1294L119.968 72.7647L119.944 72.5776L119.937 72.4264C119.923 72.2129 119.908 71.9994 119.92 71.7951C119.914 70.9595 119.98 70.0893 120.143 69.2828C120.279 68.467 120.521 67.6882 120.842 67.0262C121.162 66.3642 121.543 65.8719 121.876 65.6011C122.037 65.479 122.19 65.3834 122.35 65.3502C122.596 65.5848 122.783 65.5609 122.987 65.5727C123.165 65.5753 123.386 65.6229 123.625 65.7063C123.864 65.7898 124.164 65.9541 124.464 66.1184C124.754 66.3093 125.089 66.5452 125.414 66.8077L125.914 67.2504L126.169 67.4585C126.266 67.5221 126.327 67.603 126.414 67.6932C128.957 70.1298 130.83 73.3745 132.015 76.8848C132.621 78.6446 133.057 80.4642 133.385 82.3356C133.459 82.8077 133.532 83.2799 133.614 83.7255C133.661 84.1884 133.698 84.6778 133.772 85.15L133.85 85.8622C133.882 86.1116 133.888 86.3516 133.902 86.5652C133.913 87.0453 133.96 87.5082 133.971 87.9884C133.987 88.113 133.976 88.2284 133.992 88.3531L133.934 88.6901L133.924 89.401L133.913 90.1119C133.919 90.352 133.924 90.5921 133.903 90.8229C133.887 91.2938 133.872 91.7646 133.856 92.2355C133.835 92.4663 133.84 92.7064 133.819 92.9372L133.756 93.6296C133.714 94.0912 133.672 94.5528 133.62 95.041C133.578 95.5026 133.5 95.9814 133.431 96.4338L133.377 97.0997C133.367 97.2151 133.356 97.3304 133.319 97.4366L133.261 97.7735C133.183 98.2524 133.114 98.7047 133.019 99.1478L132.961 99.4847L132.931 99.6532L132.902 99.8217L132.75 100.513C132.655 100.956 132.524 101.416 132.429 101.859C132.307 102.293 132.176 102.753 132.054 103.187C131.932 103.621 131.801 104.081 131.653 104.506C131.347 105.381 131.077 106.24 130.727 107.07C130.552 107.485 130.404 107.91 130.229 108.325C130.054 108.74 129.852 109.146 129.678 109.562C128.952 111.213 128.076 112.783 127.192 114.29C127.091 114.493 126.973 114.66 126.846 114.854C126.719 115.048 126.601 115.215 126.5 115.418C126.255 115.779 126.036 116.149 125.791 116.51C125.546 116.871 125.274 117.223 125.029 117.583C124.784 117.944 124.538 118.305 124.249 118.621C123.172 120.001 122.06 121.309 120.886 122.537C119.704 123.791 118.47 124.938 117.209 126.075C115.957 127.186 114.662 128.252 113.332 129.246C113.009 129.49 112.685 129.734 112.326 129.996C112.002 130.24 111.652 130.475 111.329 130.719C110.664 131.172 110 131.624 109.336 132.077C109.174 132.199 109.012 132.321 108.833 132.408C108.672 132.53 108.492 132.616 108.331 132.738C107.99 132.947 107.649 133.155 107.335 133.373C106.994 133.581 106.653 133.79 106.339 134.007C106.008 134.189 105.667 134.398 105.335 134.579C105.004 134.761 104.663 134.97 104.332 135.152C104.179 135.247 104 135.334 103.838 135.456C103.686 135.551 103.507 135.637 103.328 135.724C102.638 136.078 101.985 136.416 101.322 136.779L101.071 136.9L100.82 137.021C100.641 137.107 100.498 137.176 100.319 137.263C99.9968 137.418 99.6387 137.591 99.3165 137.746C98.9943 137.901 98.6455 138.047 98.3233 138.203C97.9745 138.349 97.6616 138.478 97.3128 138.624C96.9906 138.779 96.651 138.899 96.3288 139.054C96.1591 139.114 96.0066 139.209 95.8368 139.269C95.6671 139.329 95.5146 139.424 95.3449 139.484C94.6924 139.733 94.0399 139.981 93.3875 140.229C92.735 140.478 92.0919 140.7 91.4487 140.921C91.145 141.024 90.8055 141.143 90.5018 141.246C90.1981 141.348 89.8586 141.467 89.5642 141.543C88.9303 141.738 88.3056 141.907 87.6982 142.112C87.5378 142.145 87.3945 142.214 87.2341 142.247C87.0736 142.281 86.9304 142.35 86.7699 142.383C86.4755 142.459 86.1453 142.552 85.8508 142.627C85.262 142.779 84.6373 142.948 84.0485 143.099C83.4689 143.224 82.8801 143.376 82.3005 143.501C81.1587 143.786 80.0273 143.957 78.9398 144.172C74.591 144.945 70.8175 145.264 67.7576 145.416C67.3664 145.428 67.0016 145.449 66.6369 145.471C66.4591 145.468 66.2721 145.492 66.0944 145.489C65.9167 145.487 65.7389 145.484 65.5877 145.491C64.9033 145.49 64.2985 145.517 63.7029 145.517C63.4098 145.504 63.1339 145.527 62.8673 145.523C62.6007 145.519 62.3606 145.524 62.1298 145.503C61.6589 145.488 61.2146 145.481 60.8591 145.476C60.4771 145.462 60.1216 145.457 59.7396 145.442C59.3576 145.428 59.0114 145.396 58.6294 145.382C58.2474 145.367 57.9012 145.336 57.5192 145.321L56.9687 145.278C56.791 145.275 56.596 145.237 56.4182 145.234C55.69 145.188 54.9711 145.116 54.2521 145.043C53.9059 145.012 53.5332 144.971 53.187 144.939C52.8408 144.907 52.468 144.866 52.1311 144.808C51.7849 144.777 51.4387 144.745 51.1018 144.687C50.7556 144.655 50.4186 144.597 50.0817 144.539C49.3986 144.449 48.7247 144.332 48.0416 144.243C47.3677 144.126 46.7204 144.019 46.0465 143.903L45.0622 143.738C44.7253 143.679 44.4242 143.604 44.1137 143.555C39.008 142.575 34.475 141.318 30.7061 140.091C30.4673 140.007 30.2193 139.95 30.007 139.876C29.7682 139.793 29.5559 139.719 29.3171 139.635C28.8926 139.487 28.4416 139.329 28.0078 139.207C27.1495 138.937 26.3628 138.633 25.5933 138.364C25.2219 138.234 24.8504 138.104 24.5055 137.984C24.3198 137.919 24.1605 137.863 24.0014 137.807C23.8422 137.752 23.683 137.696 23.4972 137.631C22.8604 137.409 22.2502 137.196 21.7103 137.037C21.5776 136.99 21.445 136.944 21.303 136.924C21.1704 136.878 21.0642 136.841 20.9316 136.794C20.6928 136.711 20.4447 136.654 20.2324 136.58C19.7987 136.458 19.4086 136.381 19.0982 136.332C18.4151 136.243 17.9787 136.299 17.8422 136.519Z" fill="#BFF747"/>
<path d="M37.3797 149.036C39.0248 149.611 40.7149 150.142 42.4593 150.602C42.5654 150.64 42.7074 150.659 42.8135 150.696C43.0258 150.771 43.2738 150.828 43.4954 150.875L44.5407 151.121C44.7357 151.16 44.9572 151.207 45.143 151.272C45.6391 151.386 46.1618 151.509 46.6579 151.623C47.3848 151.758 48.1117 151.893 48.8387 152.028C48.9806 152.047 49.1133 152.094 49.2552 152.114C49.5033 152.171 49.7606 152.201 49.9821 152.249C50.3549 152.289 50.7449 152.366 51.1176 152.407C51.428 152.456 51.7384 152.505 52.0488 152.554L52.2438 152.592C52.3327 152.594 52.3858 152.612 52.4746 152.613C52.785 152.662 53.0954 152.711 53.4151 152.734L54.3648 152.827C54.8265 152.869 55.3146 152.921 55.7762 152.963C55.8385 152.955 55.9181 152.983 55.9805 152.975C56.0959 152.986 56.2378 153.005 56.3797 153.025L56.9567 153.078C57.3387 153.092 57.7115 153.133 58.12 153.157L58.1731 153.175C58.5816 153.199 58.9902 153.223 59.3722 153.237C59.6388 153.241 59.9054 153.245 60.172 153.249C60.3139 153.269 60.4386 153.253 60.5898 153.246L61.9759 153.284C62.1536 153.286 62.3314 153.289 62.5357 153.301L62.8023 153.304C62.98 153.307 63.1935 153.292 63.3713 153.295C63.4867 153.305 63.5848 153.28 63.7002 153.291C64.065 153.269 64.447 153.284 64.8648 153.281L65.7627 153.267C65.8251 153.259 65.8874 153.251 65.967 153.279C66.0824 153.289 66.2071 153.273 66.3318 153.257C66.5188 153.234 66.7231 153.245 66.9101 153.221C67.3013 153.209 67.7019 153.171 68.1197 153.168C70.0323 153.062 71.8388 152.919 73.6996 152.706C75.9079 152.435 78.1347 152.112 80.3005 151.708C80.5234 151.666 80.7461 151.625 80.9782 151.557C81.9411 151.358 82.9305 151.168 83.9384 150.925L84.5803 150.792C84.9994 150.7 85.4278 150.582 85.8469 150.49C86.3734 150.346 86.8999 150.203 87.4264 150.059L87.7924 149.949C87.9529 149.916 88.1226 149.856 88.2831 149.823C88.4436 149.789 88.6133 149.73 88.7738 149.696C88.9343 149.663 89.104 149.603 89.2738 149.544C89.4435 149.484 89.604 149.451 89.7737 149.391L90.3904 149.16C90.8546 149.024 91.328 148.862 91.7922 148.727C92.0601 148.642 92.328 148.557 92.6051 148.445C92.6767 148.41 92.739 148.402 92.8106 148.368C92.9446 148.325 93.1143 148.266 93.2483 148.223C93.4538 148.146 93.6594 148.069 93.8649 147.992C94.0347 147.932 94.2044 147.872 94.3835 147.786C94.8927 147.607 95.4377 147.41 95.9563 147.204C96.3674 147.05 96.7877 146.87 97.1988 146.716L98.0926 146.373C98.2624 146.313 98.4321 146.253 98.6204 146.141C98.7994 146.054 98.9692 145.995 99.1482 145.908C99.2914 145.839 99.4612 145.779 99.6044 145.71C99.8192 145.607 100.025 145.53 100.24 145.426L101.331 144.944C101.582 144.823 101.841 144.676 102.119 144.564L102.405 144.426L103.488 143.882C103.667 143.796 103.846 143.709 104.035 143.596L104.321 143.458L104.581 143.311L104.948 143.112C105.54 142.783 106.158 142.463 106.785 142.116C106.857 142.082 106.928 142.047 106.973 142.003C107.081 141.951 107.224 141.882 107.341 141.804L107.484 141.735C107.627 141.666 107.744 141.588 107.896 141.492L108.173 141.381C108.442 141.207 108.729 141.069 108.998 140.895C109.375 140.669 109.742 140.47 110.092 140.235L110.244 140.139C110.549 139.948 110.864 139.73 111.195 139.549L111.653 139.262C111.877 139.132 112.084 138.966 112.308 138.836L112.846 138.488C112.963 138.41 113.079 138.331 113.196 138.253C113.268 138.218 113.313 138.175 113.394 138.114C113.779 137.861 114.148 137.573 114.534 137.321C114.884 137.086 115.243 136.825 115.567 136.58L116.654 135.769C116.861 135.604 117.058 135.464 117.265 135.298C117.427 135.176 117.553 135.071 117.715 134.949C119.189 133.797 120.62 132.6 121.935 131.392C123.323 130.061 124.694 128.694 125.94 127.343C127.285 125.878 128.534 124.35 129.694 122.82C129.956 122.495 130.201 122.134 130.447 121.773C130.501 121.703 130.519 121.65 130.574 121.579C130.864 121.174 131.118 120.787 131.409 120.382L131.427 120.329C131.6 120.092 131.79 119.801 131.946 119.528C132.028 119.378 132.136 119.237 132.219 119.087L132.409 118.797C132.482 118.673 132.555 118.55 132.619 118.453C132.664 118.409 132.692 118.33 132.737 118.286C132.819 118.136 132.937 117.969 133.019 117.819C134.214 115.676 135.065 114.008 135.764 112.347C135.82 112.188 135.902 112.038 135.958 111.879C136.096 111.57 136.243 111.234 136.354 110.916L136.926 109.449C137.203 108.742 137.436 107.989 137.677 107.3C137.77 107.034 137.836 106.76 137.919 106.521C138.04 106.176 138.143 105.795 138.237 105.441C138.274 105.335 138.294 105.193 138.341 105.06C138.81 105.165 139.306 105.279 139.776 105.383C141.762 105.75 143.831 105.877 145.887 105.702C147.871 105.562 149.823 105.172 151.734 104.56C152.636 104.28 153.539 103.91 154.451 103.515C155.292 103.153 156.134 102.703 156.985 102.227C158.545 101.343 160.071 100.298 161.528 99.11C162.859 98.027 164.174 96.8193 165.411 95.4949C166.539 94.3112 167.661 92.9763 168.712 91.587C170.642 89.046 172.317 86.2968 173.736 83.4284C173.865 83.1458 174.01 82.8991 174.139 82.6165C174.167 82.5369 174.221 82.4665 174.249 82.3869L174.295 82.2543C174.368 82.1309 174.414 81.9983 174.487 81.8749C174.552 81.6891 174.634 81.5392 174.699 81.3535C174.828 81.0709 174.966 80.7618 175.068 80.4699L175.114 80.3373C175.142 80.2577 175.17 80.178 175.224 80.1077C175.343 79.8517 175.436 79.5863 175.555 79.3303C175.629 79.118 175.739 78.8885 175.813 78.6762C175.998 78.2344 176.155 77.7834 176.339 77.3416L177.035 75.3517C177.852 72.9279 178.555 70.4048 179.125 67.8352C179.24 67.2502 179.365 66.6387 179.48 66.0537C179.556 65.6637 179.624 65.3002 179.665 64.9275C179.703 64.7325 179.741 64.5375 179.78 64.3425L179.925 63.5002L179.944 63.4471C179.974 63.1898 180.005 62.9324 180.061 62.6844L180.13 62.232C180.18 61.8327 180.221 61.46 180.289 61.0966C180.545 58.7447 180.678 56.9156 180.692 55.3425C180.686 55.1024 180.707 54.8716 180.702 54.6315L180.719 54.0718C180.723 53.8052 180.709 53.5028 180.704 53.2627C180.714 53.1473 180.698 53.0226 180.692 52.8714L180.663 51.7599C180.658 51.5198 180.652 51.2797 180.647 51.0397C180.631 50.915 180.632 50.8261 180.616 50.7015C180.611 50.4614 180.596 50.2479 180.582 50.0343L180.568 49.7319C180.555 49.4295 180.541 49.1271 180.492 48.8419C180.447 48.2902 180.392 47.7649 180.345 47.3021C180.316 46.875 180.241 46.4917 180.175 46.1707L180.176 46.0819C180.119 45.7344 180.07 45.4492 180.011 45.1906C179.929 44.745 179.835 44.5036 179.782 44.4851C179.719 44.4931 179.662 44.7411 179.62 45.2027C179.599 45.4335 179.586 45.7267 179.581 46.0822C179.57 46.1976 179.586 46.3223 179.566 46.4642C179.572 46.7043 179.559 46.9974 179.546 47.2905C179.539 47.7349 179.505 48.2588 179.488 48.8186C179.484 49.0852 179.471 49.3783 179.449 49.698C179.435 49.9912 179.413 50.3108 179.408 50.6663C179.397 50.7817 179.387 50.8971 179.394 51.0483C179.382 51.2526 179.361 51.4834 179.375 51.6969L179.352 52.1054C179.331 52.3362 179.31 52.567 179.288 52.7979C179.269 52.9398 179.275 53.091 179.255 53.2329C179.234 53.4637 179.24 53.7038 179.209 53.9612L179.076 55.1948C178.939 56.695 178.692 58.4247 178.284 60.7833C178.197 61.2887 178.083 61.7848 177.987 62.3167C177.93 62.5648 177.882 62.7863 177.852 63.0436L177.824 63.1232L177.635 63.9205C177.65 64.134 177.585 64.3198 177.546 64.5148C177.462 64.8424 177.394 65.2059 177.3 65.5601C177.168 66.1093 177 66.6757 176.858 67.2515C176.174 69.7216 175.392 72.128 174.506 74.4086L173.759 76.2911C173.593 76.6798 173.428 77.0685 173.236 77.448C173.126 77.6775 173.006 77.9336 172.923 78.1724C172.345 79.3996 171.74 80.7064 171.028 81.9761C169.594 84.6309 167.914 87.1401 166.031 89.4596C165.027 90.7162 163.961 91.8919 162.879 92.943C161.698 94.1081 160.491 95.1752 159.242 96.1083C156.412 98.2452 153.501 99.7588 150.546 100.632C148.922 101.106 147.282 101.367 145.646 101.45C145.37 101.473 145.077 101.46 144.774 101.473C144.659 101.463 144.508 101.469 144.383 101.485C144.205 101.483 144.028 101.48 143.859 101.451C143.833 101.442 143.797 101.459 143.744 101.44L143.477 101.437C143.362 101.426 143.246 101.415 143.122 101.431C142.864 101.401 142.607 101.371 142.376 101.35C142.208 101.321 142.03 101.318 141.861 101.289L141.72 101.269C141.356 101.202 140.993 101.134 140.603 101.057C140.186 100.971 139.752 100.85 139.318 100.728L139.377 100.391L139.435 100.054C139.512 99.6639 139.571 99.2381 139.648 98.8481L139.725 98.4581C139.726 98.3693 139.754 98.2897 139.755 98.2008C139.773 98.1477 139.756 98.1119 139.775 98.0588L139.875 97.2603C139.904 97.0918 139.916 96.8876 139.945 96.7191C139.977 96.3729 140.035 96.036 140.067 95.6898L140.179 94.0914L140.252 93.2836C140.255 93.1059 140.258 92.9281 140.26 92.7504C140.261 92.6615 140.263 92.5726 140.264 92.4838L140.282 91.8352C140.305 91.5155 140.291 91.2131 140.314 90.8934C140.325 90.6891 140.311 90.4756 140.313 90.2979C140.305 90.2355 140.297 90.1732 140.298 90.0843L140.283 89.2752L140.256 88.0748C140.258 87.986 140.259 87.8971 140.234 87.799C140.216 87.7632 140.235 87.7101 140.227 87.6478C140.182 87.096 140.153 86.5801 140.108 86.0283C140.109 85.9394 140.084 85.8413 140.085 85.7524C140.088 85.5747 140.055 85.4142 140.031 85.2272L139.927 84.4168C139.87 84.0693 139.848 83.7046 139.8 83.3306L139.719 82.7961C139.686 82.6356 139.653 82.4752 139.646 82.3239C139.598 81.9499 139.523 81.5666 139.449 81.1833C139.234 80.0958 138.992 78.999 138.722 77.9818C138.444 76.9023 138.104 75.8307 137.719 74.8029C137.326 73.7128 136.887 72.6666 136.421 71.6999C135.921 70.6616 135.384 69.6405 134.784 68.7163C133.498 66.6889 132.013 64.8898 130.373 63.364C130.258 63.2646 130.144 63.1651 130.057 63.075L129.714 62.7767C129.644 62.7224 129.574 62.668 129.53 62.6229C129.372 62.4785 129.205 62.3605 129.047 62.216C128.458 61.772 127.983 61.4274 127.489 61.1358C126.872 60.7714 126.254 60.4958 125.67 60.2918C125.644 60.2826 125.591 60.264 125.564 60.2548C124.795 59.9859 123.979 59.8497 123.179 59.8382C122.317 59.8346 121.471 59.9558 120.694 60.2201C119.916 60.4845 119.146 60.9 118.507 61.4508C117.932 61.9047 117.399 62.4926 116.936 63.1348C116.564 63.6895 116.208 64.2799 115.914 64.9512C115.436 66.0643 115.081 67.2502 114.858 68.5714C114.671 69.7865 114.592 70.9498 114.646 72.1595C114.668 72.5242 114.69 72.8001 114.686 73.0667L114.701 73.2802L114.764 73.8678L114.841 74.6689L114.954 75.4527C114.979 75.5509 114.978 75.6397 115.003 75.7379C115.037 75.8983 115.061 76.0854 115.085 76.2724L115.224 77.0655C115.272 77.4395 115.356 77.7962 115.44 78.153C115.473 78.3135 115.506 78.4739 115.539 78.6344C115.989 80.7564 116.599 82.8452 117.335 84.8291C118.105 86.8846 119.028 88.8445 120.069 90.6373C120.744 91.8559 121.528 93.0227 122.392 94.1284C121.554 93.032 120.78 91.8386 120.069 90.6373C119.028 88.8445 118.105 86.8846 117.335 84.8291C116.599 82.8452 115.989 80.7564 115.539 78.6344C115.506 78.4739 115.473 78.3135 115.44 78.153C115.356 77.7962 115.282 77.4129 115.224 77.0655L115.085 76.2724C115.051 76.1119 115.027 75.9249 115.003 75.7379C114.978 75.6397 114.979 75.5509 114.954 75.4527L114.841 74.6689L114.701 73.2802L114.686 73.0667C114.654 72.8174 114.641 72.5149 114.646 72.1595C114.619 70.9591 114.671 69.7865 114.858 68.5714C115.081 67.2502 115.383 66.0457 115.888 64.9419C116.182 64.2706 116.511 63.6709 116.91 63.1256C117.372 62.4834 117.896 61.922 118.454 61.4323C119.119 60.8908 119.863 60.4659 120.641 60.2016C121.418 59.9372 122.237 59.8068 123.126 59.8196C123.926 59.8312 124.742 59.9674 125.511 60.2362C126.148 60.4587 126.819 60.7528 127.489 61.1358C127.983 61.4274 128.484 61.7812 129.047 62.216C129.205 62.3605 129.372 62.4785 129.53 62.6229C129.574 62.668 129.644 62.7224 129.714 62.7767L130.057 63.075C130.171 63.1744 130.258 63.2646 130.346 63.3547C132.022 64.8633 133.524 66.6982 134.784 68.7163C135.384 69.6405 135.921 70.6616 136.421 71.6999C136.887 72.6666 137.326 73.7128 137.719 74.8029C138.077 75.8214 138.417 76.893 138.722 77.9818C138.992 78.999 139.234 80.0958 139.449 81.1833C139.523 81.5666 139.571 81.9407 139.646 82.3239C139.653 82.4752 139.686 82.6356 139.719 82.7961L139.8 83.3306C139.857 83.6781 139.852 84.0336 139.91 84.381L140.013 85.1914C140.037 85.3784 140.044 85.5296 140.068 85.7166C140.067 85.8055 140.092 85.9036 140.091 85.9925C140.145 86.5177 140.164 87.0602 140.21 87.612C140.227 87.6478 140.208 87.7008 140.216 87.7631C140.215 87.852 140.24 87.9502 140.239 88.039L140.251 88.4303L140.266 89.2394L140.298 90.0843C140.297 90.1732 140.305 90.2355 140.313 90.2979C140.301 90.5021 140.325 90.6891 140.314 90.8934C140.291 91.2131 140.305 91.5155 140.282 91.8352L140.264 92.4838C140.263 92.5726 140.261 92.6615 140.26 92.7504C140.258 92.9281 140.255 93.1059 140.252 93.2836L140.188 94.0648L140.076 95.6632C140.044 96.0094 140.003 96.3822 139.945 96.7191C139.916 96.8876 139.904 97.0918 139.875 97.2603L139.775 98.0588C139.756 98.1119 139.773 98.1477 139.755 98.2008C139.754 98.2897 139.735 98.3427 139.734 98.4316L139.657 98.8216C139.58 99.2116 139.512 99.6639 139.435 100.054L139.377 100.391L139.318 100.728C137.229 100.147 135.163 99.1568 133.243 97.9203L133.263 97.7784L133.322 97.4414C133.349 97.3618 133.341 97.2995 133.343 97.2106C133.352 97.1841 133.344 97.1218 133.353 97.0952L133.443 96.4121C133.472 96.2436 133.501 96.0752 133.504 95.8974C133.543 95.6136 133.592 95.3032 133.632 95.0193L133.624 94.9569C133.666 94.4953 133.699 94.0603 133.732 93.6252L133.795 92.9328C133.815 92.7908 133.808 92.6397 133.802 92.4885C133.803 92.3996 133.804 92.3107 133.806 92.2218L133.82 91.8398C133.825 91.4843 133.857 91.1381 133.853 90.8092C133.855 90.6314 133.858 90.4537 133.86 90.276C133.852 90.2136 133.871 90.1606 133.863 90.0982L133.873 89.3873L133.862 88.3116C133.863 88.2227 133.855 88.1604 133.856 88.0715C133.839 88.0357 133.858 87.9827 133.841 87.9469L133.772 86.5237C133.773 86.4348 133.775 86.3459 133.767 86.2836C133.76 86.1324 133.753 85.9812 133.747 85.83L133.668 85.1178C133.621 84.6549 133.584 84.1655 133.511 83.6933C133.477 83.5328 133.471 83.3816 133.447 83.1946C133.398 82.9094 133.358 82.5978 133.318 82.2861C132.972 80.3789 132.545 78.5328 131.947 76.8353C131.334 75.0132 130.575 73.349 129.673 71.8426C128.709 70.2554 127.601 68.8262 126.373 67.653C126.312 67.5721 126.215 67.5084 126.128 67.4183L125.873 67.2102L125.373 66.7674C125.004 66.4599 124.696 66.2332 124.422 66.0782C124.105 65.8781 123.823 65.7496 123.584 65.6661C123.557 65.6569 123.531 65.6476 123.531 65.6476C123.345 65.5827 123.15 65.5443 122.946 65.5325C122.742 65.5207 122.555 65.5446 122.385 65.6044C122.215 65.6642 122.072 65.7332 121.91 65.8553C121.551 66.1168 121.161 66.6357 120.876 67.2804C120.565 67.9159 120.323 68.6946 120.177 69.537C120.032 70.3793 119.939 71.2402 119.954 72.0493C119.952 72.227 119.957 72.4671 119.972 72.6806L119.979 72.8318L120.033 73.357L120.156 74.1144L120.234 74.8266C120.29 75.263 120.337 75.7258 120.429 76.1449L120.454 76.2431C120.494 76.5548 120.56 76.8757 120.627 77.1966C120.66 77.3571 120.693 77.5176 120.709 77.6423C121.064 79.5229 121.544 81.3876 122.159 83.1209C122.782 84.9165 123.548 86.643 124.423 88.2289C125.323 89.913 126.368 91.4391 127.487 92.753C128.64 94.1385 129.929 95.3926 131.326 96.506C131.959 96.9951 132.628 97.467 133.279 97.903L133.021 99.1526L132.934 99.658L132.726 100.508L132.405 101.855C132.338 102.129 132.255 102.368 132.189 102.643C132.124 102.829 132.095 102.997 132.03 103.183C131.984 103.315 131.964 103.457 131.917 103.59C131.842 103.891 131.731 104.209 131.629 104.501C131.536 104.767 131.453 105.005 131.369 105.244C131.156 105.855 130.969 106.474 130.703 107.066L130.205 108.321C130.086 108.577 129.966 108.833 129.847 109.089C129.765 109.239 129.709 109.398 129.627 109.548C128.828 111.323 127.879 113.016 127.141 114.277C127.059 114.426 126.986 114.55 126.887 114.664C126.842 114.708 126.823 114.761 126.769 114.831C126.651 114.998 126.559 115.175 126.441 115.342L126.423 115.395C126.341 115.545 126.241 115.659 126.159 115.809C126.013 116.056 125.85 116.267 125.705 116.514C125.459 116.875 125.188 117.226 124.942 117.587C124.888 117.657 124.843 117.701 124.815 117.781C124.624 118.071 124.407 118.353 124.19 118.634C123.157 119.97 122.009 121.296 120.827 122.55C119.689 123.76 118.446 124.933 117.149 126.088C115.943 127.155 114.647 128.221 113.272 129.259L112.266 130.009C111.942 130.253 111.628 130.471 111.305 130.715L111.269 130.732C110.793 131.072 110.326 131.385 109.859 131.698L109.276 132.09C109.204 132.124 109.159 132.168 109.114 132.212C108.998 132.29 108.917 132.351 108.8 132.43L108.612 132.543C108.504 132.594 108.388 132.673 108.307 132.734L107.311 133.368C107.113 133.508 106.889 133.638 106.692 133.777L106.315 134.003C106.055 134.15 105.795 134.298 105.535 134.445L105.276 134.592C104.944 134.774 104.603 134.983 104.272 135.164C104.129 135.233 104.012 135.312 103.869 135.381L103.761 135.433C103.654 135.484 103.546 135.536 103.43 135.615C103.358 135.649 103.313 135.693 103.251 135.701C102.561 136.055 101.898 136.419 101.244 136.756L100.994 136.877L100.743 136.998C100.564 137.084 100.421 137.153 100.242 137.24C99.9914 137.36 99.7407 137.481 99.4636 137.593L98.8907 137.869C98.6759 137.973 98.4611 138.076 98.2197 138.171L97.7993 138.351C97.5938 138.428 97.4148 138.514 97.2092 138.591C96.887 138.747 96.5475 138.866 96.2253 139.022L95.7333 139.237C95.5543 139.323 95.3845 139.383 95.2506 139.425C94.8753 139.562 94.4907 139.726 94.1154 139.862L93.2932 140.171C92.8105 140.359 92.337 140.521 91.8636 140.683C91.6939 140.743 91.5241 140.803 91.3544 140.863C91.1223 140.93 90.9167 141.007 90.6754 141.102L90.4075 141.187C90.3359 141.221 90.2736 141.229 90.2019 141.264C89.9606 141.358 89.702 141.417 89.4606 141.511L89.2909 141.571C88.7193 141.758 88.157 141.919 87.5947 142.08C87.4965 142.105 87.4249 142.139 87.3268 142.165L87.1305 142.215C86.9608 142.275 86.8268 142.317 86.6664 142.351C86.3719 142.426 86.0417 142.519 85.7473 142.595L85.6492 142.62C85.0603 142.772 84.498 142.933 83.945 143.067L83.3031 143.2C82.9198 143.274 82.563 143.358 82.1797 143.433C81.2699 143.651 80.3787 143.816 79.5232 143.963C79.3004 144.004 79.0511 144.036 78.819 144.104C75.1386 144.753 71.4793 145.172 67.6368 145.348L66.5161 145.402C66.3383 145.4 66.1513 145.424 66.0001 145.431C65.8754 145.447 65.7866 145.445 65.6712 145.435C65.6088 145.443 65.5558 145.424 65.4934 145.432C64.809 145.431 64.2042 145.458 63.6086 145.458C63.4932 145.448 63.3951 145.473 63.3062 145.472C63.1285 145.469 62.9508 145.467 62.7996 145.473C62.6218 145.471 62.4706 145.478 62.3287 145.458L62.0621 145.454L61.6443 145.457C61.3246 145.434 61.0487 145.457 60.7913 145.427C60.6401 145.433 60.5248 145.423 60.3735 145.43C60.1335 145.435 59.9027 145.414 59.6626 145.419C59.4849 145.417 59.3071 145.414 59.1121 145.376C58.9344 145.373 58.7301 145.361 58.5524 145.359C58.1969 145.354 57.8242 145.313 57.4687 145.308L56.9182 145.264C56.8028 145.254 56.6874 145.243 56.572 145.233C56.5097 145.241 56.4301 145.213 56.3677 145.221L56.0746 145.208C55.4618 145.172 54.8317 145.101 54.2189 145.065C53.9523 145.061 53.6684 145.022 53.4111 144.991C53.3222 144.99 53.2426 144.962 53.1538 144.961C52.8076 144.929 52.4348 144.889 52.0886 144.857C51.8843 144.845 51.6893 144.807 51.4851 144.795L51.0235 144.753C50.7927 144.731 50.5977 144.693 50.3669 144.672C50.2515 144.661 50.1095 144.642 49.9941 144.631L49.0537 144.511C48.6809 144.47 48.3174 144.403 47.9447 144.362C47.5547 144.285 47.1554 144.235 46.792 144.167C46.5081 144.128 46.2335 144.061 45.9496 144.022L44.9654 143.856C44.7704 143.818 44.5488 143.77 44.3538 143.732C44.2477 143.695 44.1323 143.684 43.9904 143.665C41.6239 143.195 39.1963 142.644 36.7965 142.014C34.7244 141.469 32.6443 140.861 30.5827 140.2C30.5031 140.173 30.397 140.135 30.3174 140.108C30.1847 140.061 30.0521 140.015 29.9194 139.969C29.7072 139.894 29.4418 139.802 29.2296 139.728C28.8316 139.588 28.4601 139.459 28.0529 139.346L27.9202 139.3C27.3803 139.141 26.8854 138.938 26.4078 138.771C26.0895 138.66 25.8241 138.567 25.5323 138.465C25.1608 138.336 24.7894 138.206 24.4444 138.085C24.2852 138.03 24.126 137.974 23.9669 137.918L23.9138 137.9C23.7546 137.844 23.5954 137.789 23.4097 137.724C22.7729 137.501 22.1626 137.288 21.6227 137.129L21.2154 137.017L20.844 136.887C20.6052 136.803 20.3571 136.746 20.1449 136.672C19.7111 136.55 19.3211 136.474 19.0107 136.425C18.3633 136.318 17.9535 136.383 17.8077 136.63C17.6712 136.85 17.7988 137.252 18.1824 137.773C18.3828 138.051 18.6363 138.348 18.9429 138.664C19.0915 138.835 19.2667 139.015 19.4684 139.205L19.7577 139.484C19.8453 139.575 19.9687 139.647 20.0563 139.738L20.0828 139.747C20.5393 140.145 21.0581 140.534 21.6114 140.996L21.7255 141.095C21.8489 141.168 21.9365 141.258 22.0507 141.357C22.1913 141.466 22.3585 141.584 22.5257 141.702C22.86 141.938 23.2037 142.147 23.5381 142.383C23.6615 142.456 23.8021 142.565 23.9255 142.638C24.5332 143.029 25.1316 143.446 25.8016 143.829C26.2249 144.066 26.6389 144.33 27.0886 144.577L27.3181 144.687C27.4681 144.769 27.618 144.851 27.7679 144.933C27.9178 145.015 28.0678 145.097 28.2177 145.18C28.2973 145.207 28.3676 145.262 28.4472 145.29C30.4055 146.331 32.5428 147.286 34.761 148.18C35.6551 148.433 36.5042 148.73 37.3797 149.036ZM138.341 105.06C138.294 105.193 138.274 105.335 138.237 105.441C138.143 105.795 138.049 106.149 137.919 106.521C137.827 106.786 137.734 107.052 137.677 107.3C137.453 108.025 137.23 108.751 136.926 109.449L136.39 110.899C136.252 111.208 136.105 111.544 135.994 111.862C135.938 112.021 135.856 112.171 135.8 112.33C135.101 113.991 134.25 115.659 133.055 117.802C132.963 117.978 132.881 118.128 132.773 118.269C132.727 118.313 132.7 118.392 132.655 118.436C132.582 118.559 132.518 118.656 132.445 118.78L132.254 119.07C132.172 119.22 132.063 119.361 131.981 119.511C131.826 119.784 131.609 120.065 131.427 120.329L131.409 120.382C131.118 120.787 130.891 121.184 130.6 121.588C130.546 121.659 130.501 121.703 130.447 121.773C130.211 122.107 129.992 122.477 129.729 122.803C128.56 124.359 127.312 125.888 125.975 127.326C124.72 128.704 123.359 130.044 121.917 131.357C120.602 132.564 119.198 133.771 117.715 134.949C117.553 135.071 117.427 135.176 117.265 135.298C117.058 135.464 116.852 135.63 116.654 135.769L115.54 136.571C115.19 136.806 114.857 137.077 114.534 137.321C114.148 137.573 113.779 137.861 113.394 138.114C113.313 138.175 113.268 138.218 113.196 138.253C113.079 138.331 112.936 138.4 112.819 138.479L112.308 138.836C112.084 138.966 111.886 139.105 111.653 139.262L111.169 139.539C110.854 139.757 110.576 139.957 110.244 140.139L110.092 140.235C109.715 140.461 109.348 140.66 108.998 140.895C108.729 141.069 108.442 141.207 108.173 141.381L107.878 141.545C107.734 141.614 107.618 141.693 107.465 141.788L107.322 141.857C107.205 141.935 107.098 141.987 106.955 142.056C106.883 142.091 106.811 142.125 106.766 142.169C106.148 142.489 105.566 142.792 104.948 143.112L104.581 143.311L104.312 143.485L104.035 143.596C103.856 143.683 103.667 143.796 103.488 143.882L102.405 144.426L102.119 144.564C101.868 144.685 101.582 144.823 101.331 144.944L100.24 145.426C100.025 145.53 99.8192 145.607 99.6044 145.71C99.4612 145.779 99.2914 145.839 99.1482 145.908C98.9692 145.995 98.7994 146.054 98.6204 146.141C98.4149 146.218 98.2358 146.304 98.0926 146.373L97.1988 146.716C96.7877 146.87 96.3674 147.05 95.9563 147.204C95.4377 147.41 94.8927 147.607 94.3835 147.786C94.2137 147.846 94.044 147.906 93.8742 147.965C93.6687 148.043 93.4724 148.093 93.2668 148.17C93.1329 148.213 92.9631 148.272 92.8292 148.315C92.7576 148.349 92.6953 148.357 92.6236 148.392C92.3558 148.477 92.0786 148.589 91.8107 148.674C91.3465 148.809 90.8731 148.971 90.4089 149.107L89.775 149.302C89.6053 149.362 89.4448 149.395 89.2751 149.455C89.1053 149.515 88.9356 149.574 88.7751 149.608C88.6146 149.641 88.4449 149.701 88.2751 149.76C88.1146 149.794 87.9449 149.853 87.7844 149.887L87.4184 149.997C86.8919 150.14 86.3654 150.284 85.8389 150.427C85.4198 150.519 84.9914 150.637 84.5723 150.729L83.9212 150.889C82.9132 151.132 81.9238 151.322 80.961 151.522C80.7382 151.563 80.5153 151.604 80.2925 151.645C78.1175 152.076 75.8906 152.4 73.6916 152.644C71.8573 152.866 70.0243 153 68.1117 153.105C67.6846 153.135 67.2933 153.147 66.9021 153.159C66.7151 153.183 66.5108 153.171 66.3238 153.195C66.1991 153.211 66.0837 153.201 65.959 153.217C65.8967 153.225 65.8344 153.233 65.7548 153.205L64.8568 153.218C64.439 153.221 64.0742 153.243 63.6922 153.228C63.5768 153.218 63.4787 153.243 63.3633 153.232C63.1498 153.247 62.972 153.245 62.7943 153.242L62.5277 153.238C62.3234 153.226 62.1457 153.224 61.9679 153.221L60.5818 153.183C60.4399 153.164 60.2887 153.17 60.164 153.186C59.8974 153.183 59.6308 153.179 59.3735 153.148C58.9649 153.125 58.5564 153.101 58.1744 153.087L58.1213 153.068C57.7393 153.054 57.3666 153.013 56.958 152.989L56.3452 152.954C56.2298 152.943 56.0879 152.923 55.9459 152.903C55.8929 152.885 55.804 152.884 55.7417 152.892C55.2801 152.849 54.7919 152.798 54.3303 152.756L53.3806 152.662C53.0609 152.64 52.7505 152.591 52.4401 152.542C52.3605 152.514 52.2982 152.522 52.2093 152.521L52.0143 152.482C51.7039 152.433 51.3935 152.384 51.0738 152.362C50.7011 152.321 50.3111 152.244 49.9383 152.204C49.681 152.173 49.4329 152.116 49.2114 152.069C49.096 152.058 48.9633 152.012 48.8214 151.992C48.0945 151.857 47.341 151.713 46.6141 151.578C46.0914 151.455 45.5953 151.341 45.0992 151.227C44.9042 151.189 44.6826 151.141 44.4969 151.076L43.4516 150.83C43.238 150.845 42.9992 150.761 42.7777 150.714C42.6716 150.677 42.5389 150.63 42.4235 150.62C39.8115 149.915 37.2724 149.088 34.8154 148.11C32.5879 147.242 30.4599 146.261 28.4923 145.246C28.4127 145.218 28.3424 145.164 28.2628 145.136C28.1129 145.054 27.9629 144.971 27.813 144.889C27.6631 144.807 27.5131 144.725 27.3632 144.643L27.1337 144.533C26.7105 144.296 26.2965 144.032 25.8467 143.785C25.1767 143.402 24.5425 143.002 23.9706 142.594C23.8207 142.512 23.7065 142.412 23.5831 142.34C23.2488 142.104 22.9051 141.894 22.5708 141.658C22.4036 141.54 22.2364 141.422 22.0957 141.314C21.9816 141.214 21.8847 141.151 21.7706 141.051L21.6565 140.952C21.0939 140.517 20.5578 140.092 20.1279 139.703L20.1106 139.667C19.9965 139.568 19.8996 139.504 19.812 139.414L19.5227 139.134C19.321 138.945 19.1458 138.765 18.9972 138.593C18.6734 138.242 18.4199 137.945 18.2367 137.703C17.8531 137.181 17.7256 136.78 17.8621 136.559C17.9986 136.339 18.4084 136.274 19.065 136.355C19.3754 136.403 19.7654 136.48 20.1992 136.602C20.4208 136.65 20.633 136.724 20.8983 136.816L21.2698 136.946L21.6505 137.05C22.075 137.198 22.5619 137.338 23.066 137.514C23.1987 137.561 23.3313 137.607 23.464 137.653C23.6232 137.709 23.7824 137.765 23.9681 137.83L24.0212 137.848C24.1804 137.904 24.3396 137.959 24.4988 138.015C24.8437 138.136 25.2151 138.265 25.5866 138.395C25.8785 138.497 26.1703 138.599 26.4622 138.701C26.9398 138.868 27.4439 139.044 27.9745 139.229L28.1072 139.276C28.5052 139.415 28.8767 139.545 29.2839 139.657C29.4962 139.731 29.735 139.815 29.9472 139.889C30.0799 139.935 30.2391 139.991 30.3718 140.037C30.4514 140.065 30.5575 140.102 30.6371 140.13C32.6986 140.791 34.7787 141.399 36.8508 141.944C39.2506 142.574 41.6782 143.125 44.0447 143.594C44.1601 143.605 44.2663 143.642 44.4082 143.662C44.6032 143.7 44.8247 143.748 45.0197 143.786L46.004 143.951C46.2879 143.991 46.5624 144.057 46.8463 144.097C47.2098 144.164 47.609 144.215 47.999 144.291C48.3718 144.332 48.7352 144.4 49.108 144.441L50.0485 144.561C50.1639 144.571 50.3058 144.591 50.4212 144.602C50.6427 144.649 50.847 144.661 51.0778 144.682L51.5394 144.724C51.7437 144.736 51.9387 144.775 52.1429 144.787C52.4892 144.818 52.8619 144.859 53.1988 144.917C53.2877 144.919 53.3673 144.946 53.4562 144.948C53.7135 144.978 53.9974 145.018 54.264 145.022C54.8768 145.057 55.5069 145.128 56.1197 145.164L56.4128 145.177C56.4752 145.169 56.5548 145.197 56.6171 145.189C56.7325 145.199 56.8479 145.21 56.9633 145.22L57.523 145.237C57.8785 145.242 58.2247 145.274 58.5802 145.279C58.7579 145.282 58.9887 145.303 59.1665 145.305C59.3442 145.308 59.5127 145.337 59.7169 145.349C59.9477 145.37 60.1878 145.365 60.4279 145.359C60.5698 145.379 60.6945 145.363 60.8364 145.383C61.1031 145.387 61.3962 145.4 61.6986 145.386L62.1071 145.41L62.3737 145.414C62.525 145.407 62.6934 145.436 62.8446 145.43C63.0223 145.432 63.1736 145.425 63.3513 145.428C63.4402 145.429 63.5556 145.44 63.6537 145.415C64.2227 145.405 64.8448 145.414 65.5385 145.388C65.6008 145.38 65.6539 145.399 65.7162 145.391C65.8316 145.402 65.9298 145.376 66.0452 145.387C66.2229 145.389 66.3834 145.356 66.5611 145.359L67.6899 145.366C71.5589 145.2 75.2182 144.781 78.8721 144.123C79.0949 144.082 79.3442 144.05 79.567 144.008C80.4318 143.834 81.3137 143.696 82.2235 143.478C82.5803 143.394 82.9636 143.319 83.3469 143.245L83.9888 143.112C84.5418 142.978 85.1041 142.817 85.6929 142.666L85.7911 142.64C86.0855 142.564 86.4157 142.471 86.7101 142.396C86.8441 142.353 87.0046 142.32 87.1743 142.26L87.3706 142.21C87.4687 142.184 87.5403 142.15 87.6385 142.125C88.2008 141.964 88.7724 141.777 89.3347 141.616L89.5044 141.556C89.763 141.497 90.0044 141.403 90.2457 141.309C90.3081 141.301 90.3797 141.266 90.4513 141.232L90.7192 141.147C90.9513 141.079 91.1568 141.002 91.3982 140.908C91.5679 140.848 91.7377 140.788 91.9074 140.728C92.3808 140.566 92.8543 140.404 93.337 140.216L94.1592 139.908C94.5345 139.771 94.9098 139.634 95.2944 139.471C95.4283 139.428 95.598 139.368 95.7863 139.255L96.2783 139.04C96.5913 138.911 96.9401 138.765 97.2623 138.61C97.4413 138.524 97.6469 138.447 97.8524 138.37L98.237 138.206C98.4518 138.103 98.6666 137.999 98.908 137.905L99.4716 137.655C99.7222 137.534 99.9728 137.414 100.25 137.302C100.429 137.216 100.572 137.147 100.751 137.06L101.011 136.913L101.262 136.792C101.915 136.455 102.605 136.1 103.268 135.737C103.34 135.702 103.385 135.658 103.447 135.65C103.554 135.599 103.662 135.547 103.779 135.468L103.886 135.417C104.029 135.348 104.146 135.269 104.289 135.2C104.621 135.018 104.961 134.81 105.293 134.628L105.553 134.481C105.813 134.333 106.073 134.186 106.332 134.039L106.709 133.813C106.907 133.674 107.131 133.543 107.328 133.404L108.324 132.77C108.431 132.718 108.548 132.639 108.629 132.578L108.8 132.43C108.917 132.351 109.051 132.309 109.141 132.221C109.186 132.177 109.257 132.143 109.329 132.108L109.913 131.717C110.379 131.404 110.855 131.064 111.322 130.751L111.358 130.733C111.672 130.516 111.996 130.271 112.319 130.027L113.316 129.304C114.665 128.257 115.986 127.2 117.193 126.133C118.489 124.978 119.733 123.805 120.87 122.595C122.053 121.341 123.201 120.015 124.233 118.679C124.451 118.398 124.668 118.116 124.859 117.826C124.913 117.755 124.958 117.712 124.986 117.632C125.231 117.271 125.503 116.92 125.748 116.559C125.921 116.321 126.057 116.101 126.203 115.854C126.285 115.704 126.385 115.59 126.467 115.44L126.485 115.387C126.603 115.22 126.695 115.043 126.813 114.876C126.831 114.823 126.876 114.779 126.921 114.736C126.994 114.612 127.103 114.472 127.185 114.322C127.923 113.061 128.872 111.368 129.671 109.593C129.753 109.443 129.809 109.284 129.891 109.134C130.01 108.878 130.129 108.622 130.249 108.366L130.747 107.111C130.986 106.51 131.2 105.9 131.413 105.289C131.496 105.051 131.589 104.785 131.672 104.546C131.774 104.255 131.886 103.936 131.961 103.635C132.008 103.502 132.027 103.36 132.074 103.228C132.139 103.042 132.168 102.874 132.233 102.688C132.788 102.971 133.344 103.255 133.91 103.512C135.296 104.145 136.808 104.674 138.341 105.06ZM138.341 105.06C137.57 104.88 136.8 104.611 136.057 104.352C134.731 103.888 133.441 103.319 132.189 102.643C132.255 102.368 132.338 102.129 132.405 101.855L132.726 100.508L132.934 99.658L133.021 99.1526L133.243 97.9203C134.82 98.9474 136.47 99.7623 138.142 100.346C138.54 100.485 138.938 100.625 139.345 100.737L139.297 100.959L139.259 101.154L139.079 101.924C138.993 102.341 138.907 102.757 138.804 103.138L138.728 103.439L138.368 104.981C138.359 105.007 138.341 105.06 138.341 105.06ZM179.782 44.4851C179.835 44.5036 179.955 44.7543 180.038 45.1999C180.079 45.4227 180.146 45.7437 180.212 46.0646L180.211 46.1535C180.277 46.4745 180.325 46.8485 180.381 47.2848C180.428 47.7477 180.492 48.2464 180.528 48.8246C180.568 49.1363 180.581 49.4388 180.604 49.7147L180.617 50.0171C180.632 50.2306 180.637 50.4707 180.652 50.6842C180.642 50.7996 180.667 50.8977 180.683 51.0224C180.698 51.236 180.703 51.476 180.708 51.7161L180.692 52.8714C180.681 52.9868 180.697 53.1115 180.704 53.2627C180.709 53.5028 180.723 53.8052 180.719 54.0718L180.702 54.6315C180.707 54.8716 180.686 55.1024 180.692 55.3425C180.651 56.9063 180.518 58.7355 180.289 61.0966C180.248 61.4693 180.171 61.8593 180.13 62.232L180.061 62.6844C180.031 62.9417 180.001 63.1991 179.944 63.4471L179.925 63.5002L179.78 64.3425C179.741 64.5375 179.703 64.7325 179.665 64.9275C179.597 65.291 179.547 65.6903 179.48 66.0537C179.365 66.6387 179.249 67.2237 179.125 67.8352C178.555 70.4048 177.852 72.9279 177.035 75.3517L176.339 77.3416C176.182 77.7926 175.998 78.2344 175.813 78.6762C175.739 78.8885 175.629 79.118 175.555 79.3303C175.462 79.5956 175.343 79.8517 175.224 80.1077C175.196 80.1873 175.168 80.2669 175.114 80.3373L175.068 80.4699C174.939 80.7525 174.801 81.0616 174.699 81.3535C174.634 81.5392 174.552 81.6891 174.487 81.8749C174.414 81.9983 174.368 82.1309 174.295 82.2543L174.249 82.3869C174.221 82.4665 174.167 82.5369 174.139 82.6165C174.02 82.8725 173.891 83.1551 173.736 83.4284C172.317 86.2968 170.642 89.046 168.712 91.587C167.661 92.9763 166.549 94.2847 165.411 95.4949C164.184 96.7928 162.859 98.027 161.528 99.11C160.071 100.298 158.509 101.36 156.985 102.227C156.134 102.703 155.292 103.153 154.451 103.515C153.539 103.91 152.636 104.28 151.734 104.56C147.805 105.837 143.659 106.115 139.776 105.383C139.297 105.305 138.801 105.191 138.341 105.06C138.35 105.034 138.359 105.007 138.368 104.981L138.772 103.484L138.848 103.183C138.934 102.767 139.02 102.35 139.123 101.969L139.341 101.004L139.389 100.782C139.823 100.904 140.23 101.016 140.673 101.112C141.036 101.179 141.4 101.247 141.79 101.323L141.932 101.343C142.1 101.372 142.278 101.375 142.446 101.404C142.704 101.434 142.935 101.455 143.192 101.486C143.307 101.496 143.423 101.507 143.547 101.491L143.77 101.45C143.797 101.459 143.806 101.432 143.859 101.451C144.037 101.454 144.232 101.492 144.419 101.468C144.544 101.452 144.685 101.472 144.81 101.456C145.077 101.46 145.379 101.446 145.682 101.433C147.318 101.35 148.958 101.089 150.582 100.615C153.528 99.7681 156.448 98.228 159.278 96.091C160.527 95.1579 161.734 94.0909 162.915 92.9257C164.006 91.8481 165.072 90.6724 166.077 89.4158C167.959 87.0962 169.639 84.5872 171.064 81.9588C171.749 80.6799 172.381 79.3823 172.959 78.1551C173.069 77.9256 173.161 77.6603 173.271 77.4307C173.437 77.042 173.603 76.6533 173.795 76.2739L174.542 74.3913C175.428 72.1108 176.209 69.7043 176.894 67.2342C177.035 66.6585 177.204 66.092 177.336 65.5428C177.43 65.1886 177.497 64.8252 177.582 64.4975C177.62 64.3025 177.668 64.081 177.733 63.8953L177.922 63.098L177.95 63.0184C178.007 62.7703 178.055 62.5488 178.085 62.2915C178.182 61.7595 178.295 61.2634 178.383 60.758C178.781 58.426 179.001 56.687 179.174 55.1695L179.308 53.9359C179.338 53.6786 179.359 53.4478 179.354 53.2077C179.373 53.0658 179.367 52.9146 179.387 52.7726C179.408 52.5418 179.429 52.311 179.45 52.0802L179.474 51.6717C179.495 51.4409 179.506 51.2366 179.492 51.023C179.502 50.9076 179.496 50.7564 179.506 50.641C179.529 50.3213 179.524 49.9924 179.547 49.6727C179.569 49.3531 179.582 49.0599 179.586 48.7933C179.603 48.2336 179.601 47.7269 179.644 47.2653C179.657 46.9721 179.67 46.679 179.664 46.4389C179.658 46.2877 179.668 46.1724 179.679 46.057C179.684 45.7015 179.697 45.4083 179.718 45.1775C179.689 44.7504 179.693 44.4838 179.782 44.4851ZM123.584 65.6661C123.61 65.6754 123.628 65.7112 123.628 65.7112C123.867 65.7946 124.14 65.9497 124.466 66.1233C124.74 66.2783 125.047 66.505 125.416 66.8125L125.917 67.2552L126.171 67.4633C126.268 67.527 126.329 67.6079 126.417 67.698C127.644 68.8712 128.762 70.274 129.716 71.8877C130.619 73.394 131.395 75.0941 131.991 76.8804C132.562 78.5686 133.016 80.424 133.361 82.3312C133.401 82.6428 133.451 82.928 133.491 83.2397C133.524 83.4001 133.531 83.5514 133.564 83.7118C133.61 84.1747 133.648 84.6641 133.721 85.1363L133.8 85.8485C133.806 85.9998 133.813 86.1509 133.82 86.3021C133.818 86.391 133.817 86.4799 133.825 86.5422L133.894 87.9654C133.911 88.0012 133.892 88.0543 133.91 88.0901C133.918 88.1524 133.916 88.2413 133.924 88.3036L133.936 88.6949L133.926 89.4059L133.942 90.126C133.95 90.1884 133.932 90.2415 133.94 90.3038C133.937 90.4815 133.935 90.6593 133.932 90.837C133.927 91.1925 133.895 91.5387 133.9 91.8676L133.894 92.2231C133.893 92.312 133.892 92.4008 133.891 92.4897C133.897 92.6409 133.878 92.7829 133.884 92.9341L133.821 93.6265C133.788 94.0616 133.746 94.5232 133.713 94.9582L133.721 95.0206C133.681 95.3045 133.632 95.6148 133.593 95.8987C133.564 96.0671 133.534 96.2357 133.532 96.4134L133.38 97.1045C133.361 97.1576 133.352 97.1841 133.343 97.2106C133.341 97.2995 133.349 97.3618 133.348 97.4507L133.261 97.9561C132.609 97.52 131.941 97.0482 131.308 96.5591C129.91 95.4457 128.622 94.1915 127.468 92.8061C126.359 91.4656 125.314 89.9395 124.405 88.282C123.53 86.6961 122.764 84.9695 122.141 83.1739C121.535 81.4141 121.046 79.576 120.691 77.6953C120.657 77.5349 120.624 77.3744 120.608 77.2497C120.542 76.9288 120.502 76.6171 120.435 76.2961L120.41 76.198C120.354 75.7616 120.272 75.316 120.216 74.8796L120.137 74.1674L120.013 72.9034L120.006 72.7522C119.992 72.5387 119.977 72.3251 119.989 72.1209C119.983 71.2852 120.04 70.4416 120.212 69.6086C120.357 68.7662 120.599 67.9875 120.911 67.352C121.186 66.7338 121.585 66.1884 121.945 65.9269C122.106 65.8048 122.25 65.7358 122.419 65.676C122.598 65.5897 122.785 65.5657 122.99 65.5776C123.194 65.5894 123.372 65.592 123.584 65.6661Z" fill="#BFF747"/>
</svg>
