<svg width="150" height="37" viewBox="0 0 150 37" fill="none" xmlns="http://www.w3.org/2000/svg">
<path d="M43.8315 24.0531H54.5316V20.8131H47.6346V8.60938H43.8315V24.0531Z" fill="white"/>
<path d="M60.8716 21.8928C59.3461 21.8928 58.5511 20.5537 58.5511 18.5449C58.5511 16.5361 59.3461 15.1754 60.8716 15.1754C62.3971 15.1754 63.2136 16.5361 63.2136 18.5449C63.2136 20.5537 62.3971 21.8928 60.8716 21.8928ZM60.8931 24.3984C64.4383 24.3984 66.7588 21.8712 66.7588 18.5449C66.7588 15.2186 64.4383 12.6914 60.8931 12.6914C57.3693 12.6914 55.0059 15.2186 55.0059 18.5449C55.0059 21.8712 57.3693 24.3984 60.8931 24.3984Z" fill="white"/>
<path d="M72.8955 27.876C74.5284 27.876 75.968 27.5088 76.9349 26.6448C77.8158 25.8457 78.3959 24.6361 78.3959 22.9729V12.9939H75.0441V14.1819H75.0011C74.3565 13.2531 73.3682 12.6699 71.9071 12.6699C69.1784 12.6699 67.2876 14.9595 67.2876 18.1994C67.2876 21.5905 69.5866 23.4481 72.0575 23.4481C73.3897 23.4481 74.2276 22.9081 74.8722 22.1737H74.9582V23.2753C74.9582 24.6145 74.3351 25.3921 72.8525 25.3921C71.6923 25.3921 71.1121 24.8953 70.9188 24.3121H67.5239C67.8677 26.6232 69.8659 27.876 72.8955 27.876ZM72.874 20.8346C71.5633 20.8346 70.7039 19.7546 70.7039 18.0914C70.7039 16.4066 71.5633 15.3267 72.874 15.3267C74.3351 15.3267 75.1086 16.5794 75.1086 18.0698C75.1086 19.625 74.3995 20.8346 72.874 20.8346Z" fill="white"/>
<path d="M85.2871 21.8928C83.7616 21.8928 82.9666 20.5537 82.9666 18.5449C82.9666 16.5361 83.7616 15.1754 85.2871 15.1754C86.8126 15.1754 87.6291 16.5361 87.6291 18.5449C87.6291 20.5537 86.8126 21.8928 85.2871 21.8928ZM85.3086 24.3984C88.8538 24.3984 91.1739 21.8712 91.1739 18.5449C91.1739 15.2186 88.8538 12.6914 85.3086 12.6914C81.7849 12.6914 79.4214 15.2186 79.4214 18.5449C79.4214 21.8712 81.7849 24.3984 85.3086 24.3984Z" fill="white"/>
<path d="M92.1973 24.0531H95.6995V12.9941H92.1973V24.0531ZM92.1973 11.4605H95.6995V8.60938H92.1973V11.4605Z" fill="white"/>
<path d="M97.2192 27.7032H100.721V22.9081H100.764C101.452 23.8369 102.462 24.3985 103.88 24.3985C106.759 24.3985 108.671 22.1089 108.671 18.5234C108.671 15.1971 106.888 12.6699 103.966 12.6699C102.462 12.6699 101.388 13.3395 100.636 14.3331H100.571V12.9939H97.2192V27.7032ZM102.978 21.6769C101.473 21.6769 100.614 20.4458 100.614 18.653C100.614 16.8602 101.388 15.4995 102.913 15.4995C104.417 15.4995 105.126 16.7522 105.126 18.653C105.126 20.5322 104.31 21.6769 102.978 21.6769Z" fill="white"/>
<path d="M114.373 24.3985C117.252 24.3985 119.379 23.1457 119.379 20.7266C119.379 17.897 117.101 17.4002 115.168 17.0762C113.771 16.817 112.525 16.709 112.525 15.9315C112.525 15.2403 113.191 14.9163 114.05 14.9163C115.017 14.9163 115.683 15.2187 115.812 16.2123H119.035C118.863 14.0307 117.187 12.6699 114.072 12.6699C111.472 12.6699 109.323 13.8795 109.323 16.2123C109.323 18.8042 111.364 19.3226 113.277 19.6466C114.738 19.9058 116.07 20.0138 116.07 21.0074C116.07 21.7201 115.404 22.1089 114.351 22.1089C113.191 22.1089 112.46 21.5689 112.331 20.4674H109.022C109.13 22.9081 111.15 24.3985 114.373 24.3985Z" fill="white"/>
<path d="M124.137 24.3771C125.662 24.3771 126.629 23.7723 127.424 22.6923H127.488V24.0531H130.84V12.9941H127.338V19.1716C127.338 20.4892 126.607 21.3964 125.404 21.3964C124.287 21.3964 123.75 20.7268 123.75 19.5172V12.9941H120.269V20.2516C120.269 22.7139 121.601 24.3771 124.137 24.3771Z" fill="white"/>
<path d="M132.364 24.0529H135.866V17.8538C135.866 16.5362 136.511 15.6075 137.606 15.6075C138.659 15.6075 139.153 16.2987 139.153 17.4866V24.0529H142.656V17.8538C142.656 16.5362 143.279 15.6075 144.396 15.6075C145.449 15.6075 145.943 16.2987 145.943 17.4866V24.0529H149.445V16.8602C149.445 14.3763 148.199 12.6699 145.707 12.6699C144.289 12.6699 143.107 13.2747 142.247 14.6139H142.204C141.646 13.4259 140.55 12.6699 139.11 12.6699C137.52 12.6699 136.468 13.4259 135.78 14.5707H135.716V12.9939H132.364V24.0529Z" fill="white"/>
<path d="M22.4642 1.19064L18.9432 0.242188L15.976 11.3746L13.2971 1.32418L9.77595 2.27264L12.6703 13.1313L5.46113 5.88416L2.88352 8.47538L10.7911 16.4247L0.943472 13.7721L0 17.3118L10.7597 20.2101C10.6366 19.6759 10.5714 19.1194 10.5714 18.5475C10.5714 14.4998 13.8355 11.2184 17.862 11.2184C21.8885 11.2184 25.1526 14.4998 25.1526 18.5475C25.1526 19.1157 25.0882 19.6688 24.9666 20.1998L34.7452 22.8338L35.6886 19.2942L24.8861 16.3843L34.7344 13.7315L33.7908 10.1919L22.9888 13.1016L30.1979 5.8544L27.6203 3.26318L19.8224 11.1022L22.4642 1.19064Z" fill="#BFF747"/>
<path d="M24.9568 20.2422C24.6549 21.5252 24.0176 22.6778 23.1431 23.6013L30.2272 30.7229L32.8049 28.1317L24.9568 20.2422Z" fill="#BFF747"/>
<path d="M23.0712 23.6758C22.1862 24.5845 21.0677 25.2626 19.8135 25.6121L22.3913 35.2833L25.9123 34.3348L23.0712 23.6758Z" fill="#BFF747"/>
<path d="M19.682 25.6466C19.1001 25.797 18.4902 25.8769 17.8616 25.8769C17.1882 25.8769 16.5361 25.7851 15.917 25.6133L13.3369 35.2933L16.858 36.2417L19.682 25.6466Z" fill="#BFF747"/>
<path d="M15.7925 25.5802C14.5574 25.2133 13.4588 24.5266 12.5918 23.6152L5.49023 30.7543L8.06785 33.3456L15.7925 25.5802Z" fill="#BFF747"/>
<path d="M12.5334 23.5499C11.6812 22.6329 11.0606 21.4956 10.7651 20.2324L0.95459 22.875L1.89806 26.4147L12.5334 23.5499Z" fill="#BFF747"/>
</svg>
