<svg width="151" height="37" viewBox="0 0 151 37" fill="none" xmlns="http://www.w3.org/2000/svg">
<path d="M44.0542 24.0751H54.8819V20.7965H47.9026V8.44727H44.0542V24.0751Z" fill="white"/>
<path d="M61.297 21.8892C59.7533 21.8892 58.9488 20.5341 58.9488 18.5014C58.9488 16.4687 59.7533 15.0917 61.297 15.0917C62.8407 15.0917 63.6669 16.4687 63.6669 18.5014C63.6669 20.5341 62.8407 21.8892 61.297 21.8892ZM61.3187 24.4246C64.9062 24.4246 67.2544 21.8674 67.2544 18.5014C67.2544 15.1354 64.9062 12.5781 61.3187 12.5781C57.753 12.5781 55.3613 15.1354 55.3613 18.5014C55.3613 21.8674 57.753 24.4246 61.3187 24.4246Z" fill="white"/>
<path d="M73.4643 27.944C75.1167 27.944 76.5734 27.5724 77.5518 26.6982C78.4433 25.8894 79.0303 24.6654 79.0303 22.9825V12.8845H75.6385V14.0866H75.595C74.9428 13.1468 73.9426 12.5566 72.4641 12.5566C69.7029 12.5566 67.7896 14.8735 67.7896 18.152C67.7896 21.5836 70.116 23.4633 72.6163 23.4633C73.9644 23.4633 74.8123 22.9169 75.4646 22.1737H75.5515V23.2885C75.5515 24.6436 74.921 25.4304 73.4208 25.4304C72.2467 25.4304 71.6597 24.9277 71.464 24.3376H68.0287C68.3766 26.6763 70.3986 27.944 73.4643 27.944ZM73.4425 20.8186C72.1163 20.8186 71.2466 19.7258 71.2466 18.0428C71.2466 16.3379 72.1163 15.2451 73.4425 15.2451C74.921 15.2451 75.7037 16.5128 75.7037 18.0209C75.7037 19.5946 74.9862 20.8186 73.4425 20.8186Z" fill="white"/>
<path d="M86.004 21.8892C84.4603 21.8892 83.6558 20.5341 83.6558 18.5014C83.6558 16.4687 84.4603 15.0917 86.004 15.0917C87.5477 15.0917 88.3739 16.4687 88.3739 18.5014C88.3739 20.5341 87.5477 21.8892 86.004 21.8892ZM86.0257 24.4246C89.6132 24.4246 91.9609 21.8674 91.9609 18.5014C91.9609 15.1354 89.6132 12.5781 86.0257 12.5781C82.46 12.5781 80.0684 15.1354 80.0684 18.5014C80.0684 21.8674 82.46 24.4246 86.0257 24.4246Z" fill="white"/>
<path d="M92.9961 24.0751H96.5401V12.8842H92.9961V24.0751ZM92.9961 11.3324H96.5401V8.44727H92.9961V11.3324Z" fill="white"/>
<path d="M98.0781 27.7691H101.622V22.9169H101.666C102.361 23.8567 103.383 24.425 104.818 24.425C107.732 24.425 109.667 22.1082 109.667 18.4799C109.667 15.1139 107.862 12.5566 104.905 12.5566C103.383 12.5566 102.296 13.2342 101.535 14.2396H101.47V12.8845H98.0781V27.7691ZM103.905 21.671C102.383 21.671 101.513 20.4252 101.513 18.611C101.513 16.7969 102.296 15.4199 103.84 15.4199C105.362 15.4199 106.079 16.6876 106.079 18.611C106.079 20.5126 105.253 21.671 103.905 21.671Z" fill="white"/>
<path d="M115.436 24.425C118.349 24.425 120.502 23.1573 120.502 20.7093C120.502 17.846 118.197 17.3433 116.24 17.0155C114.827 16.7532 113.566 16.6439 113.566 15.8571C113.566 15.1576 114.24 14.8298 115.11 14.8298C116.088 14.8298 116.762 15.1358 116.893 16.1412H120.154C119.98 13.9336 118.284 12.5566 115.131 12.5566C112.501 12.5566 110.326 13.7806 110.326 16.1412C110.326 18.764 112.392 19.2886 114.327 19.6165C115.805 19.8788 117.153 19.988 117.153 20.9935C117.153 21.7147 116.479 22.1082 115.414 22.1082C114.24 22.1082 113.501 21.5617 113.37 20.447H110.022C110.131 22.9169 112.174 24.425 115.436 24.425Z" fill="white"/>
<path d="M125.316 24.4034C126.86 24.4034 127.839 23.7914 128.643 22.6986H128.708V24.0756H132.1V12.8848H128.556V19.1359C128.556 20.4692 127.817 21.3872 126.599 21.3872C125.469 21.3872 124.925 20.7096 124.925 19.4856V12.8848H121.403V20.2287C121.403 22.7204 122.751 24.4034 125.316 24.4034Z" fill="white"/>
<path d="M133.642 24.0753H137.186V17.8023C137.186 16.4691 137.838 15.5292 138.947 15.5292C140.012 15.5292 140.512 16.2286 140.512 17.4308V24.0753H144.056V17.8023C144.056 16.4691 144.687 15.5292 145.817 15.5292C146.883 15.5292 147.383 16.2286 147.383 17.4308V24.0753H150.927V16.7969C150.927 14.2833 149.666 12.5566 147.144 12.5566C145.709 12.5566 144.513 13.1686 143.643 14.5238H143.6C143.034 13.3216 141.925 12.5566 140.469 12.5566C138.86 12.5566 137.794 13.3216 137.099 14.4801H137.033V12.8845H133.642V24.0753Z" fill="white"/>
<path fill-rule="evenodd" clip-rule="evenodd" d="M7.65704 3.48027C6.37621 4.38059 5.21799 5.44507 4.21255 6.64335C8.32124 6.25988 13.5412 6.88603 19.6015 9.9322C26.073 13.185 31.2843 13.295 34.911 12.5917C34.5819 11.5901 34.1676 10.6275 33.6769 9.71233C29.5252 10.1525 24.2028 9.56986 18 6.45217C14.0611 4.47235 10.5891 3.65679 7.65704 3.48027ZM31.2517 6.24217C27.9731 2.55968 23.2085 0.242188 17.9055 0.242188C16.3481 0.242188 14.8371 0.442084 13.3966 0.81772C15.3476 1.35286 17.4201 2.13578 19.6015 3.23223C24.1428 5.51486 28.0636 6.24983 31.2517 6.24217ZM35.6864 16.1075C31.3049 16.9772 25.2546 16.7986 18 13.1521C11.2178 9.74311 5.81967 9.78604 2.17901 10.5994C1.99109 10.6413 1.8076 10.6854 1.62853 10.7313C1.15188 11.7734 0.771399 12.8693 0.498401 14.0072C0.789978 13.9289 1.09128 13.8545 1.40214 13.785C5.8189 12.7983 12.0594 12.8412 19.6015 16.6322C26.3838 20.0412 31.7819 19.9983 35.4226 19.1849C35.5473 19.1571 35.6702 19.1283 35.7911 19.0986C35.8043 18.8148 35.8109 18.5293 35.8109 18.2422C35.8109 17.5199 35.7687 16.8076 35.6864 16.1075ZM35.2065 22.8972C30.8675 23.6598 24.9933 23.3671 18 19.8521C11.2178 16.4431 5.81967 16.486 2.17901 17.2993C1.37089 17.4798 0.643916 17.6997 0.00262315 17.9318C0.000874684 18.035 0 18.1385 0 18.2422C0 28.1833 8.01655 36.2422 17.9055 36.2422C26.1931 36.2422 33.1657 30.582 35.2065 22.8972Z" fill="#BFF747"/>
</svg>
