<svg width="152" height="37" viewBox="0 0 152 37" fill="none" xmlns="http://www.w3.org/2000/svg">
<path d="M44.4551 24.1219H55.2827V20.8434H48.3035V8.49414H44.4551V24.1219Z" fill="white"/>
<path d="M61.6978 21.9361C60.1541 21.9361 59.3497 20.581 59.3497 18.5483C59.3497 16.5156 60.1541 15.1386 61.6978 15.1386C63.2415 15.1386 64.0678 16.5156 64.0678 18.5483C64.0678 20.581 63.2415 21.9361 61.6978 21.9361ZM61.7196 24.4715C65.3071 24.4715 67.6552 21.9142 67.6552 18.5483C67.6552 15.1823 65.3071 12.625 61.7196 12.625C58.1539 12.625 55.7622 15.1823 55.7622 18.5483C55.7622 21.9142 58.1539 24.4715 61.7196 24.4715Z" fill="white"/>
<path d="M73.8652 27.9909C75.5176 27.9909 76.9743 27.6193 77.9527 26.745C78.8441 25.9363 79.4312 24.7123 79.4312 23.0293V12.9314H76.0394V14.1335H75.9959C75.3436 13.1937 74.3435 12.6035 72.865 12.6035C70.1038 12.6035 68.1904 14.9204 68.1904 18.1989C68.1904 21.6305 70.5169 23.5102 73.0172 23.5102C74.3652 23.5102 75.2132 22.9638 75.8655 22.2206H75.9524V23.3353C75.9524 24.6905 75.3219 25.4773 73.8217 25.4773C72.6476 25.4773 72.0606 24.9746 71.8649 24.3845H68.4296C68.7775 26.7232 70.7995 27.9909 73.8652 27.9909ZM73.8434 20.8655C72.5171 20.8655 71.6475 19.7726 71.6475 18.0896C71.6475 16.3848 72.5171 15.2919 73.8434 15.2919C75.3219 15.2919 76.1046 16.5596 76.1046 18.0678C76.1046 19.6415 75.3871 20.8655 73.8434 20.8655Z" fill="white"/>
<path d="M86.4049 21.9361C84.8612 21.9361 84.0567 20.581 84.0567 18.5483C84.0567 16.5156 84.8612 15.1386 86.4049 15.1386C87.9486 15.1386 88.7748 16.5156 88.7748 18.5483C88.7748 20.581 87.9486 21.9361 86.4049 21.9361ZM86.4266 24.4715C90.0141 24.4715 92.3618 21.9142 92.3618 18.5483C92.3618 15.1823 90.0141 12.625 86.4266 12.625C82.8609 12.625 80.4692 15.1823 80.4692 18.5483C80.4692 21.9142 82.8609 24.4715 86.4266 24.4715Z" fill="white"/>
<path d="M93.3975 24.1219H96.9414V12.9311H93.3975V24.1219ZM93.3975 11.3793H96.9414V8.49414H93.3975V11.3793Z" fill="white"/>
<path d="M98.479 27.816H102.023V22.9638H102.066C102.762 23.9036 103.784 24.4719 105.219 24.4719C108.133 24.4719 110.068 22.155 110.068 18.5268C110.068 15.1608 108.263 12.6035 105.306 12.6035C103.784 12.6035 102.697 13.2811 101.936 14.2865H101.871V12.9314H98.479V27.816ZM104.306 21.7179C102.784 21.7179 101.914 20.4721 101.914 18.6579C101.914 16.8438 102.697 15.4668 104.241 15.4668C105.763 15.4668 106.48 16.7345 106.48 18.6579C106.48 20.5595 105.654 21.7179 104.306 21.7179Z" fill="white"/>
<path d="M115.837 24.4719C118.75 24.4719 120.903 23.2042 120.903 20.7562C120.903 17.8929 118.598 17.3902 116.641 17.0624C115.228 16.8001 113.967 16.6908 113.967 15.9039C113.967 15.2045 114.641 14.8766 115.511 14.8766C116.489 14.8766 117.163 15.1826 117.293 16.1881H120.555C120.381 13.9805 118.685 12.6035 115.532 12.6035C112.901 12.6035 110.727 13.8275 110.727 16.1881C110.727 18.8109 112.793 19.3355 114.728 19.6633C116.206 19.9256 117.554 20.0349 117.554 21.0403C117.554 21.7616 116.88 22.155 115.815 22.155C114.641 22.155 113.902 21.6086 113.771 20.4939H110.423C110.532 22.9638 112.575 24.4719 115.837 24.4719Z" fill="white"/>
<path d="M125.717 24.4503C127.261 24.4503 128.239 23.8383 129.044 22.7455H129.109V24.1224H132.501V12.9316H128.957V19.1828C128.957 20.516 128.218 21.434 127 21.434C125.87 21.434 125.326 20.7565 125.326 19.5325V12.9316H121.804V20.2756C121.804 22.7673 123.152 24.4503 125.717 24.4503Z" fill="white"/>
<path d="M134.043 24.1222H137.587V17.8492C137.587 16.5159 138.239 15.5761 139.348 15.5761C140.413 15.5761 140.914 16.2755 140.914 17.4776V24.1222H144.458V17.8492C144.458 16.5159 145.088 15.5761 146.219 15.5761C147.284 15.5761 147.784 16.2755 147.784 17.4776V24.1222H151.328V16.8438C151.328 14.3302 150.067 12.6035 147.545 12.6035C146.11 12.6035 144.914 13.2155 144.044 14.5706H144.001C143.436 13.3685 142.327 12.6035 140.87 12.6035C139.261 12.6035 138.196 13.3685 137.5 14.5269H137.435V12.9314H134.043V24.1222Z" fill="white"/>
<path fill-rule="evenodd" clip-rule="evenodd" d="M17.9055 36.2422C27.7944 36.2422 35.811 28.1833 35.811 18.2422C35.811 8.30107 27.7944 0.242188 17.9055 0.242188C8.01655 0.242188 0 8.30107 0 18.2422C0 28.1833 8.01655 36.2422 17.9055 36.2422ZM23.4914 8.62735C23.7633 7.65644 22.826 7.08231 21.9701 7.69536L10.0209 16.2528C9.0926 16.9176 9.23862 18.2422 10.2403 18.2422H13.3868V18.2177H19.5192L14.5224 19.9901L12.3196 27.8571C12.0477 28.828 12.9849 29.4021 13.841 28.789L25.7901 20.2316C26.7184 19.5668 26.5723 18.2422 25.5708 18.2422H20.7991L23.4914 8.62735Z" fill="#BFF747"/>
</svg>
