<svg width="177" height="51" viewBox="0 0 177 51" fill="none" xmlns="http://www.w3.org/2000/svg">
<path d="M33.4108 6.28143L23.541 0.552985C22.7373 0.086505 21.4223 0.086505 20.6188 0.552985L10.8223 6.23876L33.4108 6.28143Z" fill="#BFF747"/>
<path d="M17.7049 48.4263L44.1595 19.3945V15.127L6.66455 42.0182L17.7049 48.4263Z" fill="#BFF747"/>
<path d="M36.5135 8.08139L34.6436 6.99609L5.12294 9.54578L1.46116 11.6711C0.657616 12.1376 0 13.2824 0 14.2153V22.0764L36.5135 8.08139Z" fill="#BFF747"/>
<path d="M18.7412 49.028L20.6186 50.1178C21.4222 50.5842 22.7371 50.5842 23.5408 50.1178L42.6984 38.9989C43.5022 38.5324 44.1595 37.3876 44.1595 36.4548V25.6211L18.7412 49.028Z" fill="#BFF747"/>
<path d="M1.46117 38.9986L1.99529 39.3085L44.1597 14.3532V14.2163C44.1597 13.2835 43.5024 12.1386 42.6986 11.6721L41.8332 11.1699L0 23.1115V36.4544C0 37.3873 0.657624 38.5321 1.46117 38.9986Z" fill="#BFF747"/>
<path d="M65.8797 37.694C64.6997 37.694 63.6797 37.504 62.8197 37.124C61.9597 36.744 61.2997 36.204 60.8397 35.504C60.3797 34.784 60.1497 33.934 60.1497 32.954C60.1497 32.034 60.3597 31.224 60.7797 30.524C61.1997 29.804 61.8397 29.204 62.6997 28.724C63.5797 28.244 64.6697 27.904 65.9697 27.704L70.9797 26.894V30.194L66.7797 30.944C66.1397 31.064 65.6497 31.274 65.3097 31.574C64.9697 31.854 64.7997 32.264 64.7997 32.804C64.7997 33.304 64.9897 33.694 65.3697 33.974C65.7497 34.254 66.2197 34.394 66.7797 34.394C67.5197 34.394 68.1697 34.234 68.7297 33.914C69.2897 33.594 69.7197 33.164 70.0197 32.624C70.3397 32.064 70.4997 31.454 70.4997 30.794V26.534C70.4997 25.914 70.2497 25.394 69.7497 24.974C69.2697 24.554 68.6097 24.344 67.7697 24.344C66.9697 24.344 66.2597 24.564 65.6397 25.004C65.0397 25.444 64.5997 26.024 64.3197 26.744L60.7197 25.034C61.0397 24.114 61.5497 23.324 62.2497 22.664C62.9497 22.004 63.7897 21.494 64.7697 21.134C65.7497 20.774 66.8197 20.594 67.9797 20.594C69.3597 20.594 70.5797 20.844 71.6397 21.344C72.6997 21.844 73.5197 22.544 74.0997 23.444C74.6997 24.324 74.9997 25.354 74.9997 26.534V37.334H70.7997V34.694L71.8197 34.514C71.3397 35.234 70.8097 35.834 70.2297 36.314C69.6497 36.774 68.9997 37.114 68.2797 37.334C67.5597 37.574 66.7597 37.694 65.8797 37.694ZM78.2999 37.334V20.954H82.4999V24.884L82.1999 24.314C82.5599 22.934 83.1499 22.004 83.9699 21.524C84.8099 21.024 85.7999 20.774 86.9399 20.774H87.8999V24.674H86.4899C85.3899 24.674 84.4999 25.014 83.8199 25.694C83.1399 26.354 82.7999 27.294 82.7999 28.514V37.334H78.2999ZM98.3481 37.514C96.3681 37.514 94.8281 36.984 93.7281 35.924C92.6481 34.844 92.1081 33.344 92.1081 31.424V24.854H89.3481V20.954H89.4981C90.3381 20.954 90.9781 20.744 91.4181 20.324C91.8781 19.904 92.1081 19.274 92.1081 18.434V17.234H96.6081V20.954H100.448V24.854H96.6081V31.124C96.6081 31.684 96.7081 32.154 96.9081 32.534C97.1081 32.894 97.4181 33.164 97.8381 33.344C98.2581 33.524 98.7781 33.614 99.3981 33.614C99.5381 33.614 99.6981 33.604 99.8781 33.584C100.058 33.564 100.248 33.544 100.448 33.524V37.334C100.148 37.374 99.8081 37.414 99.4281 37.454C99.0481 37.494 98.6881 37.514 98.3481 37.514ZM103.085 37.334V20.954H107.585V37.334H103.085ZM103.085 19.484V14.984H107.585V19.484H103.085ZM117.298 37.694C115.498 37.694 113.928 37.274 112.588 36.434C111.268 35.574 110.368 34.424 109.888 32.984L113.188 31.424C113.608 32.304 114.178 32.994 114.898 33.494C115.618 33.994 116.418 34.244 117.298 34.244C117.938 34.244 118.428 34.114 118.768 33.854C119.108 33.594 119.278 33.234 119.278 32.774C119.278 32.534 119.218 32.334 119.098 32.174C118.978 31.994 118.798 31.834 118.558 31.694C118.318 31.554 118.018 31.434 117.658 31.334L114.868 30.554C113.528 30.174 112.498 29.564 111.778 28.724C111.058 27.864 110.698 26.854 110.698 25.694C110.698 24.674 110.958 23.784 111.478 23.024C111.998 22.264 112.728 21.674 113.668 21.254C114.608 20.814 115.688 20.594 116.908 20.594C118.508 20.594 119.908 20.974 121.108 21.734C122.328 22.474 123.188 23.524 123.688 24.884L120.358 26.444C120.118 25.764 119.678 25.224 119.038 24.824C118.418 24.404 117.708 24.194 116.908 24.194C116.328 24.194 115.868 24.314 115.528 24.554C115.208 24.794 115.048 25.124 115.048 25.544C115.048 25.764 115.108 25.964 115.228 26.144C115.348 26.324 115.538 26.484 115.798 26.624C116.078 26.764 116.418 26.894 116.818 27.014L119.428 27.794C120.788 28.194 121.828 28.804 122.548 29.624C123.268 30.424 123.628 31.414 123.628 32.594C123.628 33.614 123.358 34.504 122.818 35.264C122.298 36.024 121.568 36.624 120.628 37.064C119.688 37.484 118.578 37.694 117.298 37.694ZM134.207 37.514C132.227 37.514 130.687 36.984 129.587 35.924C128.507 34.844 127.967 33.344 127.967 31.424V24.854H125.207V20.954H125.357C126.197 20.954 126.837 20.744 127.277 20.324C127.737 19.904 127.967 19.274 127.967 18.434V17.234H132.467V20.954H136.307V24.854H132.467V31.124C132.467 31.684 132.567 32.154 132.767 32.534C132.967 32.894 133.277 33.164 133.697 33.344C134.117 33.524 134.637 33.614 135.257 33.614C135.397 33.614 135.557 33.604 135.737 33.584C135.917 33.564 136.107 33.544 136.307 33.524V37.334C136.007 37.374 135.667 37.414 135.287 37.454C134.907 37.494 134.547 37.514 134.207 37.514ZM138.944 37.334V20.954H143.444V37.334H138.944ZM138.944 19.484V14.984H143.444V19.484H138.944ZM154.777 37.694C153.137 37.694 151.657 37.324 150.337 36.584C149.037 35.824 147.997 34.794 147.217 33.494C146.457 32.194 146.077 30.734 146.077 29.114C146.077 27.494 146.457 26.044 147.217 24.764C147.977 23.464 149.017 22.444 150.337 21.704C151.657 20.964 153.137 20.594 154.777 20.594C155.997 20.594 157.127 20.804 158.167 21.224C159.207 21.644 160.097 22.234 160.837 22.994C161.577 23.734 162.107 24.614 162.427 25.634L158.527 27.314C158.247 26.494 157.767 25.844 157.087 25.364C156.427 24.884 155.657 24.644 154.777 24.644C153.997 24.644 153.297 24.834 152.677 25.214C152.077 25.594 151.597 26.124 151.237 26.804C150.897 27.484 150.727 28.264 150.727 29.144C150.727 30.024 150.897 30.804 151.237 31.484C151.597 32.164 152.077 32.694 152.677 33.074C153.297 33.454 153.997 33.644 154.777 33.644C155.677 33.644 156.457 33.404 157.117 32.924C157.777 32.444 158.247 31.794 158.527 30.974L162.427 32.684C162.127 33.644 161.607 34.504 160.867 35.264C160.127 36.024 159.237 36.624 158.197 37.064C157.157 37.484 156.017 37.694 154.777 37.694Z" fill="white"/>
<path d="M167.297 37.334V32.834H171.797V37.334H167.297Z" fill="#BFF747"/>
</svg>
