<svg width="161" height="161" viewBox="0 0 161 161" fill="none" xmlns="http://www.w3.org/2000/svg">
<circle cx="80.2656" cy="80.2285" r="80" fill="black"/>
<circle cx="80.2559" cy="80.2305" r="33.9902" fill="#BFF747"/>
<circle cx="80.25" cy="80.2324" r="20" fill="#BFF747"/>
<path d="M85.3485 76.9411L74.3935 87.8961L72.5938 86.0964L83.5475 75.1413H73.8933V72.5957H87.8941V86.5966H85.3485V76.9411Z" fill="black"/>
<path d="M86.3559 26.4016C85.6129 26.3284 84.9389 26.126 84.3339 25.7944C83.7289 25.4629 83.2134 25.0323 82.7873 24.5027C82.3613 23.973 82.0456 23.3699 81.8403 22.6932C81.6443 22.0175 81.5843 21.2942 81.6603 20.5233C81.7363 19.7525 81.9317 19.0544 82.2465 18.429C82.5715 17.7952 82.9896 17.2644 83.5006 16.8365C84.0219 16.4002 84.6111 16.0832 85.2682 15.8854C85.9263 15.6783 86.6269 15.6113 87.3698 15.6845C88.1128 15.7578 88.7645 15.9486 89.3249 16.257C89.8946 16.5663 90.3632 16.9501 90.7306 17.4083C91.099 17.8572 91.3472 18.3365 91.4751 18.8461L89.7098 19.488C89.5679 18.9301 89.2812 18.4611 88.8498 18.081C88.4184 17.7009 87.8683 17.4779 87.1996 17.412C86.5495 17.3479 85.9586 17.4444 85.4269 17.7015C84.9044 17.9595 84.4774 18.344 84.1456 18.8553C83.8232 19.3674 83.6263 19.9856 83.5549 20.7101C83.4835 21.4345 83.5602 22.0844 83.7848 22.6598C84.0196 23.2268 84.3727 23.6883 84.844 24.0442C85.3153 24.4001 85.876 24.6101 86.5261 24.6742C87.0555 24.7264 87.5532 24.6722 88.0191 24.5119C88.4859 24.3422 88.8728 24.0802 89.1796 23.726C89.4874 23.3625 89.6674 22.916 89.7196 22.3866L89.7978 21.5926L90.5874 22.4299L86.7424 22.051L86.9003 20.449L91.7762 20.9295L91.6732 21.9743C91.5945 22.773 91.3903 23.4656 91.0605 24.052C90.7308 24.6384 90.3131 25.1177 89.8076 25.4899C89.3122 25.8537 88.7661 26.114 88.1693 26.2709C87.5733 26.4185 86.9689 26.462 86.3559 26.4016Z" fill="#BFF747"/>
<path d="M92.0381 27.0842L94.8828 17.0508L101.549 18.9409L101.091 20.557L96.2562 19.1862L95.5269 21.7585L100.092 23.053L99.6343 24.6691L95.0687 23.3747L94.3279 25.9874L99.1628 27.3582L98.7046 28.9743L92.0381 27.0842Z" fill="#BFF747"/>
<path d="M101.978 30.382L105.717 22.4722L103.274 21.3175L103.992 19.7988L110.573 22.9098L109.855 24.4285L107.451 23.2918L103.712 31.2016L101.978 30.382Z" fill="#BFF747"/>
<path d="M114.747 38.4467C114.233 38.0276 113.833 37.5441 113.546 36.9961C113.265 36.454 113.102 35.8869 113.055 35.2947C113.022 34.7011 113.116 34.1212 113.337 33.555L114.996 34.024C114.814 34.6461 114.798 35.2413 114.948 35.8098C115.104 36.371 115.413 36.8405 115.876 37.2183C116.136 37.4307 116.393 37.5739 116.646 37.6479C116.912 37.7205 117.154 37.7258 117.374 37.6639C117.6 37.6078 117.796 37.4786 117.961 37.2762C118.156 37.0376 118.243 36.7834 118.222 36.5136C118.215 36.2424 118.106 35.9483 117.895 35.6314L116.751 33.8666C116.282 33.1579 116.047 32.4786 116.048 31.8285C116.048 31.1785 116.264 30.5896 116.695 30.0619C117.073 29.5992 117.518 29.2823 118.032 29.111C118.552 28.9456 119.094 28.9306 119.659 29.066C120.236 29.2 120.788 29.4824 121.316 29.9132C121.8 30.3087 122.174 30.7584 122.437 31.2624C122.706 31.7592 122.862 32.2774 122.903 32.8171C122.957 33.3555 122.892 33.8861 122.706 34.409L121.049 33.9596C121.22 33.425 121.235 32.9193 121.094 32.4428C120.959 31.959 120.682 31.5459 120.263 31.2036C120.017 31.003 119.765 30.8693 119.506 30.8026C119.253 30.7286 119.01 30.7233 118.778 30.7866C118.559 30.8485 118.366 30.9807 118.201 31.1831C118.018 31.4072 117.928 31.665 117.931 31.9566C117.94 32.2409 118.054 32.551 118.274 32.887L119.379 34.5661C119.851 35.301 120.096 35.9827 120.113 36.6111C120.137 37.2453 119.928 37.8336 119.485 38.3757C119.107 38.8384 118.655 39.1494 118.127 39.3089C117.599 39.4683 117.043 39.4781 116.458 39.3382C115.874 39.1983 115.303 38.9011 114.747 38.4467Z" fill="#BFF747"/>
<path d="M120.125 43.2739L126.649 37.4444L124.849 35.4298L126.102 34.3105L130.952 39.7386L129.699 40.8578L127.927 38.8745L121.403 44.704L120.125 43.2739Z" fill="#BFF747"/>
<path d="M123.746 47.2766L134.481 44.732L135.8 46.8129L128.917 55.4348L127.808 53.6849L129.303 51.8592L127.144 48.454L124.848 49.0146L123.746 47.2766ZM128.855 48.0158L130.429 50.4988L133.886 46.2523L134.171 46.7016L128.855 48.0158Z" fill="#BFF747"/>
<path d="M129.309 56.4815L138.961 52.5312L140.43 56.1199C140.698 56.7763 140.814 57.4045 140.777 58.0044C140.753 58.6094 140.57 59.1481 140.229 59.6205C139.896 60.0893 139.406 60.4563 138.758 60.7214C138.093 60.9936 137.462 61.0654 136.865 60.9367C136.271 60.8166 135.753 60.5348 135.309 60.0912L132.342 63.892L131.525 61.8969L134.792 57.7922L134.585 59.208L133.593 56.7853L130.03 58.2434L129.309 56.4815ZM135.148 56.149L135.906 58.0016C136.037 58.3212 136.21 58.5728 136.427 58.7566C136.652 58.9367 136.903 59.0456 137.18 59.0833C137.458 59.1209 137.744 59.0797 138.037 58.9595C138.34 58.8358 138.572 58.6649 138.735 58.447C138.907 58.2255 139.005 57.9735 139.031 57.6908C139.065 57.4046 139.016 57.1017 138.886 56.7821L138.127 54.9295L135.148 56.149Z" fill="#BFF747"/>
<path d="M133.031 66.9171L141.575 65.0315L140.992 62.3933L142.633 62.0312L144.202 69.1394L142.561 69.5015L141.988 66.9042L133.445 68.7898L133.031 66.9171Z" fill="#BFF747"/>
<path d="M134.422 74.1701L144.836 73.6133L145.206 80.5327L143.528 80.6224L143.26 75.6041L140.59 75.7468L140.844 80.4855L139.166 80.5752L138.913 75.8365L136.201 75.9815L136.469 80.9998L134.792 81.0895L134.422 74.1701Z" fill="#BFF747"/>
<path d="M134.756 82.9273L145.109 84.1836L144.7 87.5605C144.567 88.6537 144.229 89.5763 143.687 90.3283C143.153 91.0908 142.469 91.6471 141.637 91.9974C140.814 92.3487 139.893 92.4626 138.874 92.3389C137.864 92.2164 136.993 91.885 136.259 91.3448C135.535 90.8056 135 90.1015 134.654 89.2322C134.316 88.3734 134.214 87.3974 134.347 86.3042L134.756 82.9273ZM136.195 85.0196L136.009 86.5482C135.924 87.2523 135.994 87.8766 136.219 88.4209C136.453 88.9757 136.811 89.4282 137.295 89.7783C137.788 90.1296 138.392 90.3485 139.105 90.4351C139.828 90.5228 140.466 90.4545 141.02 90.2303C141.573 90.006 142.025 89.6519 142.375 89.168C142.724 88.6933 142.942 88.1039 143.027 87.3998L143.212 85.8712L136.195 85.0196Z" fill="#BFF747"/>
<path d="M136.271 100.524L137.451 99.7855L138.365 101.245L139.464 99.9483L140.528 100.835L139.442 102.137L141.109 102.795L140.594 104.097L138.928 103.439L138.831 105.132L137.448 105.052L137.532 103.354L135.867 103.796L135.516 102.438L137.18 101.996L136.271 100.524Z" fill="#BFF747"/>
<path d="M123.546 113.023C123.989 112.422 124.507 111.945 125.101 111.595C125.695 111.244 126.329 111.021 127.002 110.925C127.674 110.829 128.354 110.866 129.041 111.035C129.722 111.211 130.374 111.529 130.998 111.988C131.622 112.447 132.123 112.972 132.499 113.562C132.878 114.165 133.121 114.796 133.228 115.454C133.337 116.125 133.309 116.793 133.143 117.459C132.985 118.131 132.685 118.767 132.242 119.368C131.8 119.97 131.303 120.433 130.751 120.757C130.195 121.089 129.625 121.295 129.044 121.377C128.47 121.465 127.931 121.433 127.427 121.283L127.777 119.438C128.329 119.6 128.879 119.594 129.426 119.417C129.973 119.24 130.446 118.881 130.844 118.34C131.231 117.814 131.45 117.256 131.501 116.668C131.546 116.087 131.433 115.523 131.163 114.977C130.887 114.438 130.456 113.953 129.87 113.522C129.284 113.09 128.686 112.824 128.076 112.724C127.469 112.636 126.892 112.704 126.345 112.927C125.798 113.151 125.332 113.525 124.944 114.052C124.629 114.48 124.422 114.936 124.321 115.418C124.229 115.906 124.257 116.372 124.404 116.817C124.56 117.267 124.852 117.65 125.28 117.965L125.923 118.438L124.8 118.689L127.089 115.577L128.386 116.531L125.482 120.478L124.637 119.856C123.99 119.38 123.499 118.851 123.163 118.268C122.828 117.685 122.629 117.081 122.567 116.456C122.507 115.844 122.562 115.242 122.732 114.649C122.91 114.061 123.181 113.519 123.546 113.023Z" fill="#BFF747"/>
<path d="M120.044 117.578L127.227 125.139L122.203 129.911L121.046 128.693L124.689 125.232L122.848 123.294L119.407 126.562L118.25 125.344L121.691 122.076L119.82 120.107L116.177 123.568L115.02 122.35L120.044 117.578Z" fill="#BFF747"/>
<path d="M112.136 124.456L117.048 131.697L119.284 130.18L120.227 131.57L114.202 135.657L113.259 134.266L115.461 132.773L110.549 125.533L112.136 124.456Z" fill="#BFF747"/>
<path d="M98.7085 131.352C99.3304 131.124 99.9504 131.025 100.568 131.056C101.178 131.091 101.749 131.239 102.283 131.5C102.811 131.773 103.262 132.149 103.637 132.628L102.389 133.817C101.946 133.344 101.442 133.027 100.876 132.867C100.314 132.716 99.752 132.744 99.1914 132.95C98.8761 133.066 98.6222 133.214 98.4299 133.394C98.2321 133.586 98.104 133.792 98.0458 134.012C97.9788 134.236 97.9904 134.47 98.0806 134.715C98.1868 135.004 98.3614 135.209 98.6042 135.328C98.8415 135.46 99.1502 135.515 99.5305 135.495L101.632 135.408C102.48 135.365 103.185 135.508 103.744 135.84C104.303 136.171 104.7 136.656 104.935 137.296C105.142 137.856 105.188 138.401 105.074 138.93C104.952 139.463 104.688 139.937 104.285 140.354C103.876 140.783 103.352 141.115 102.712 141.35C102.125 141.565 101.548 141.658 100.98 141.629C100.416 141.607 99.8905 141.477 99.4048 141.238C98.9137 141.011 98.4904 140.685 98.1348 140.258L99.3649 139.06C99.7379 139.48 100.165 139.751 100.647 139.872C101.133 140.001 101.629 139.973 102.137 139.786C102.435 139.677 102.679 139.528 102.868 139.339C103.06 139.159 103.188 138.952 103.252 138.72C103.31 138.5 103.294 138.267 103.204 138.022C103.104 137.75 102.928 137.542 102.675 137.396C102.426 137.259 102.101 137.199 101.7 137.218L99.6924 137.314C98.8194 137.347 98.1081 137.211 97.5585 136.906C97.0001 136.604 96.6001 136.125 96.3586 135.468C96.1525 134.907 96.1151 134.359 96.2464 133.824C96.3776 133.288 96.6522 132.804 97.0701 132.372C97.4879 131.94 98.0341 131.6 98.7085 131.352Z" fill="#BFF747"/>
<path d="M91.794 133.527L93.4716 142.114L96.1232 141.595L96.4453 143.244L89.3011 144.64L88.979 142.991L91.5894 142.481L89.9118 133.895L91.794 133.527Z" fill="#BFF747"/>
<path d="M86.5196 134.585L83.2242 145.114L80.7615 145.185L76.8646 134.864L78.9355 134.804L79.7417 137.021L83.7716 136.905L84.4626 134.645L86.5196 134.585ZM83.2744 138.6L80.3359 138.685L82.2207 143.826L81.689 143.841L83.2744 138.6Z" fill="#BFF747"/>
<path d="M75.6946 134.667L74.1719 144.984L70.3358 144.418C69.6342 144.315 69.0347 144.094 68.5374 143.757C68.0294 143.427 67.6593 142.995 67.4268 142.461C67.193 141.936 67.1272 141.327 67.2294 140.634C67.3343 139.924 67.5944 139.344 68.0095 138.896C68.4155 138.446 68.9224 138.144 69.5302 137.988L67.7732 133.498L69.9059 133.813L71.7718 138.715L70.6594 137.815L73.2491 138.198L73.8112 134.389L75.6946 134.667ZM73.0038 139.859L71.0235 139.567C70.6819 139.517 70.3769 139.538 70.1086 139.63C69.8389 139.732 69.6171 139.893 69.4432 140.112C69.2692 140.332 69.1591 140.599 69.1128 140.912C69.0651 141.236 69.0935 141.523 69.1979 141.774C69.3009 142.034 69.4676 142.248 69.6978 142.414C69.9266 142.589 70.2118 142.702 70.5534 142.752L72.5337 143.045L73.0038 139.859Z" fill="#BFF747"/>
<path d="M64.8288 132.554L62.0981 140.866L64.6649 141.709L64.1406 143.305L57.225 141.033L57.7493 139.437L60.2761 140.267L63.0068 131.955L64.8288 132.554Z" fill="#BFF747"/>
<path d="M57.8635 130.044L53.0234 139.281L46.8856 136.065L47.6652 134.577L52.1167 136.91L53.3576 134.541L49.1541 132.339L49.9337 130.851L54.1372 133.053L55.3976 130.648L50.9461 128.316L51.7257 126.828L57.8635 130.044Z" fill="#BFF747"/>
<path d="M50.251 125.913L43.8828 134.172L41.189 132.095C40.3169 131.422 39.6962 130.661 39.3267 129.81C38.9442 128.961 38.8149 128.09 38.9388 127.196C39.0571 126.309 39.4296 125.459 40.0565 124.646C40.6776 123.84 41.4077 123.26 42.2469 122.905C43.0803 122.558 43.9589 122.458 44.8828 122.605C45.7936 122.753 46.6851 123.163 47.5571 123.836L50.251 125.913ZM47.7176 126.081L46.4981 125.141C45.9365 124.707 45.3641 124.449 44.7809 124.364C44.1847 124.282 43.6125 124.359 43.0643 124.596C42.5103 124.841 42.014 125.248 41.5752 125.817C41.1307 126.393 40.8635 126.977 40.7734 127.567C40.6834 128.158 40.757 128.727 40.9942 129.275C41.2241 129.818 41.6198 130.306 42.1815 130.739L43.4009 131.679L47.7176 126.081Z" fill="#BFF747"/>
<path d="M34.3259 118.229L34.3614 119.62L32.6401 119.664L33.1974 121.27L31.8922 121.736L31.3239 120.138L29.9094 121.238L29.0501 120.133L30.4646 119.033L29.0564 118.089L29.8288 116.939L31.248 117.874L31.7147 116.217L33.0627 116.605L32.596 118.262L34.3259 118.229Z" fill="#BFF747"/>
<path d="M30.0245 100.909C30.3173 101.596 30.4635 102.284 30.4634 102.974C30.4632 103.664 30.3332 104.323 30.0734 104.951C29.8136 105.579 29.4362 106.146 28.9414 106.651C28.4429 107.148 27.8373 107.548 27.1247 107.851C26.4122 108.155 25.706 108.319 25.0063 108.343C24.2943 108.363 23.6279 108.251 23.0071 108.009C22.3741 107.761 21.8129 107.397 21.3237 106.915C20.826 106.438 20.4307 105.855 20.138 105.168C19.8453 104.482 19.6996 103.818 19.7009 103.179C19.6985 102.531 19.81 101.935 20.0353 101.393C20.2521 100.854 20.5532 100.406 20.9387 100.049L22.3497 101.289C21.9286 101.682 21.655 102.158 21.5289 102.719C21.4028 103.28 21.4714 103.87 21.7349 104.488C21.991 105.089 22.3595 105.561 22.8404 105.904C23.3176 106.238 23.8601 106.428 24.4678 106.473C25.0718 106.51 25.7087 106.385 26.3783 106.1C27.048 105.815 27.5812 105.435 27.9779 104.962C28.3624 104.483 28.5976 103.952 28.6833 103.368C28.769 102.783 28.6838 102.191 28.4277 101.59C28.2191 101.1 27.9326 100.69 27.5681 100.358C27.195 100.03 26.7794 99.817 26.3213 99.7181C25.8546 99.6228 25.3766 99.6794 24.8873 99.888L24.1532 100.201L24.5084 99.106L26.0231 102.66L24.5422 103.291L22.6213 98.7842L23.5871 98.3726C24.3254 98.0579 25.031 97.9043 25.7037 97.9118C26.3764 97.9193 26.9974 98.0553 27.5667 98.32C28.1237 98.5796 28.6144 98.9335 29.0387 99.3817C29.4544 99.8334 29.7831 100.343 30.0245 100.909Z" fill="#BFF747"/>
<path d="M27.895 95.5802L17.7266 97.8965L16.1876 91.1403L17.8254 90.7672L18.9416 95.6671L21.5485 95.0733L20.4946 90.4463L22.1324 90.0732L23.1864 94.7002L25.8343 94.0971L24.7181 89.1971L26.356 88.824L27.895 95.5802Z" fill="#BFF747"/>
<path d="M26.0292 85.2965L17.2959 85.8215L17.458 88.5183L15.7812 88.6191L15.3445 81.353L17.0212 81.2522L17.1808 83.9072L25.9142 83.3822L26.0292 85.2965Z" fill="#BFF747"/>
<path d="M26.9471 70.1471C26.8269 70.7987 26.5959 71.3824 26.254 71.8982C25.9138 72.4049 25.4954 72.8212 24.9987 73.1471C24.4946 73.4622 23.9411 73.659 23.3382 73.7376L22.9506 72.0576C23.5837 71.9181 24.1132 71.6457 24.5391 71.2403C24.9558 70.8332 25.2183 70.3359 25.3267 69.7486C25.3876 69.4182 25.3896 69.1244 25.3327 68.8671C25.2683 68.599 25.1561 68.3838 24.9963 68.2215C24.8381 68.0499 24.6305 67.9405 24.3736 67.8931C24.0707 67.8372 23.806 67.8833 23.5794 68.0313C23.3453 68.1684 23.1402 68.4058 22.9641 68.7434L21.9677 70.5952C21.5726 71.3479 21.0901 71.8805 20.52 72.1929C19.9499 72.5053 19.3299 72.5997 18.6599 72.4761C18.0726 72.3678 17.5803 72.1299 17.1831 71.7624C16.7875 71.3858 16.5133 70.9176 16.3603 70.358C16.1998 69.7875 16.1814 69.1672 16.3049 68.4973C16.4184 67.8824 16.6326 67.3383 16.9477 66.865C17.2535 66.39 17.6331 66.0045 18.0862 65.7085C18.5319 65.4016 19.0287 65.2038 19.5765 65.115L19.9804 66.7838C19.4292 66.8909 18.9787 67.121 18.6289 67.474C18.2699 67.8253 18.0413 68.2672 17.9431 68.7995C17.8856 69.1115 17.8899 69.397 17.956 69.6559C18.0129 69.9131 18.125 70.1284 18.2924 70.3016C18.4522 70.4639 18.6606 70.5688 18.9176 70.6162C19.2021 70.6687 19.4714 70.6234 19.7255 70.4805C19.9705 70.3359 20.1873 70.0865 20.376 69.7322L21.3159 67.9554C21.7327 67.1877 22.2123 66.6451 22.7549 66.3276C23.2991 66.001 23.9154 65.9011 24.6037 66.0281C25.1911 66.1364 25.6817 66.3835 26.0755 66.7693C26.4693 67.1551 26.7456 67.6379 26.9044 68.2176C27.0632 68.7973 27.0774 69.4405 26.9471 70.1471Z" fill="#BFF747"/>
<path d="M28.5985 63.0929L20.3551 60.1617L19.4499 62.7073L17.8672 62.1445L20.3059 55.286L21.8887 55.8488L20.9976 58.3548L29.241 61.2859L28.5985 63.0929Z" fill="#BFF747"/>
<path d="M30.3733 58.006L23.0056 49.7949L24.2025 47.6414L35.0658 49.5634L34.0593 51.3743L31.7412 50.9347L29.7826 54.4585L31.373 56.2073L30.3733 58.006ZM28.5795 53.1652L30.0077 50.5958L24.625 49.5899L24.8834 49.125L28.5795 53.1652Z" fill="#BFF747"/>
<path d="M35.7948 48.7238L27.7031 42.1445L30.1494 39.136C30.5968 38.5856 31.0927 38.1829 31.6369 37.9278C32.1798 37.6596 32.7402 37.562 33.3183 37.6351C33.8891 37.7023 34.446 37.9567 34.9891 38.3982C35.5466 38.8516 35.912 39.3712 36.0852 39.957C36.2642 40.5356 36.2654 41.1259 36.0886 41.7279L40.8463 42.5112L39.4863 44.1838L34.3185 43.2836L35.6604 42.787L34.009 44.8181L36.9958 47.2467L35.7948 48.7238ZM32.7056 43.7583L33.9685 42.2052C34.1863 41.9373 34.324 41.6643 34.3816 41.3864C34.432 41.1026 34.4072 40.8298 34.3072 40.5682C34.2073 40.3065 34.0342 40.0755 33.788 39.8754C33.5346 39.6693 33.2732 39.547 33.0039 39.5084C32.7273 39.4639 32.4589 39.4983 32.1985 39.6113C31.9309 39.7185 31.6882 39.9061 31.4704 40.174L30.2075 41.7271L32.7056 43.7583Z" fill="#BFF747"/>
<path d="M43.1611 40.4583L37.397 33.8764L35.3645 35.6563L34.2578 34.3926L39.734 29.5969L40.8407 30.8606L38.8398 32.6129L44.6039 39.1948L43.1611 40.4583Z" fill="#BFF747"/>
<path d="M48.8664 35.7362L43.3672 26.875L49.2548 23.2212L50.1406 24.6485L45.8706 27.2984L47.2804 29.5702L51.3126 27.0679L52.1984 28.4952L48.1662 30.9975L49.5982 33.305L53.8682 30.6551L54.754 32.0824L48.8664 35.7362Z" fill="#BFF747"/>
<path d="M56.3005 31.2699L52.4297 21.5859L55.5883 20.3234C56.6109 19.9146 57.5823 19.7676 58.5024 19.8822C59.4278 19.9846 60.244 20.3167 60.9509 20.8783C61.6543 21.4313 62.1966 22.1844 62.5776 23.1377C62.9552 24.0822 63.0832 25.0059 62.9617 25.9088C62.8367 26.803 62.476 27.6104 61.8797 28.3312C61.2886 29.0399 60.4818 29.5985 59.4592 30.0073L56.3005 31.2699ZM57.4449 29.0034L58.8747 28.4319C59.5333 28.1686 60.0472 27.8074 60.4164 27.3483C60.7909 26.877 61.0154 26.345 61.0901 25.7524C61.1613 25.151 61.0635 24.5167 60.7968 23.8495C60.5266 23.1736 60.1602 22.6466 59.6976 22.2687C59.235 21.8908 58.7074 21.6646 58.1147 21.5899C57.5307 21.5118 56.9094 21.6043 56.2508 21.8676L54.821 22.4391L57.4449 29.0034Z" fill="#BFF747"/>
<path d="M70.8995 21.5279L69.6729 20.871L70.4857 19.353L68.8143 19.0433L69.0553 17.6789L70.7247 17.9747L70.468 16.2014L71.8534 16.0009L72.1101 17.7742L73.6271 17.0171L74.2451 18.2573L72.7301 19.0282L73.94 20.2534L72.9361 21.2332L71.7262 20.008L70.8995 21.5279Z" fill="#BFF747"/>
</svg>
