<svg width="133" height="121" viewBox="0 0 133 121" fill="none" xmlns="http://www.w3.org/2000/svg">
<path d="M12.4558 56.4631L11.4653 56.6006L11.4571 56.5418L11.456 56.4825L12.4558 56.4631ZM46.3817 43.0753L47.1887 42.4848L47.2479 42.5657L47.2899 42.6568L46.3817 43.0753ZM8.76881 53.1586L9.63273 52.655L9.64245 52.6717L9.65151 52.6887L8.76881 53.1586ZM7.96324 0.704849L12.0129 11.5184L0.623236 9.61875L7.96324 0.704849ZM7.48976 10.6772C7.22449 12.8365 6.98984 15.038 6.79318 17.2502L4.80103 17.0731C4.99974 14.8379 5.23678 12.6141 5.50468 10.4333L7.48976 10.6772ZM6.32703 23.8393C6.21156 26.0709 6.14271 28.2798 6.12799 30.4334L4.12803 30.4198C4.14298 28.2332 4.21285 25.9942 4.3297 23.736L6.32703 23.8393ZM6.27006 37.01C6.39443 39.3248 6.60154 41.5136 6.90179 43.5274L4.92366 43.8223C4.61234 41.7343 4.39997 39.4815 4.27294 37.1174L6.27006 37.01ZM8.35777 49.8048C8.73527 50.8914 9.16051 51.8449 9.63273 52.655L7.90488 53.6623C7.354 52.7172 6.87842 51.641 6.46853 50.4611L8.35777 49.8048ZM9.65151 52.6887C10.1533 53.6312 10.6649 54.5219 11.185 55.3626L9.48407 56.4147C8.94034 55.5357 8.40727 54.6075 7.8861 53.6286L9.65151 52.6887ZM14.8049 60.299C16.269 61.9632 17.7681 63.3032 19.2753 64.3575L18.1289 65.9963C16.4795 64.8425 14.8629 63.3928 13.3033 61.6201L14.8049 60.299ZM24.6028 66.9616C26.5874 67.5412 28.5522 67.7032 30.445 67.5218L30.6359 69.5126C28.4958 69.7178 26.2758 69.5337 24.0422 68.8815L24.6028 66.9616ZM36.1134 65.8962C37.8937 65.0259 39.5359 63.8543 40.9723 62.4629L42.3639 63.8994C40.7846 65.4292 38.971 66.7254 36.9918 67.693L36.1134 65.8962ZM44.5896 57.7196C45.5549 55.9537 46.2321 54.0595 46.5589 52.127L48.5309 52.4604C48.1645 54.6277 47.4086 56.7322 46.3446 58.6788L44.5896 57.7196ZM46.4203 46.272C46.2059 45.3335 45.8931 44.4043 45.4735 43.4939L47.2899 42.6568C47.7681 43.6944 48.1253 44.755 48.3701 45.8266L46.4203 46.272ZM45.5747 43.6659C44.9277 42.7817 44.2713 41.9703 43.6083 41.2283L45.0998 39.8958C45.8084 40.6889 46.5054 41.5511 47.1887 42.4848L45.5747 43.6659ZM38.9894 37.1848C37.1323 35.9734 35.2692 35.2196 33.4484 34.8525L33.8437 32.892C35.9298 33.3126 38.0276 34.1695 40.0821 35.5096L38.9894 37.1848ZM27.5112 34.9817C25.5952 35.4555 23.7662 36.3393 22.0952 37.5659L20.9117 35.9536C22.774 34.5866 24.8391 33.5822 27.0311 33.0402L27.5112 34.9817ZM17.8359 41.9166C16.6752 43.5325 15.7023 45.3618 14.9701 47.348L13.0936 46.6562C13.8865 44.5054 14.9431 42.5157 16.2116 40.7498L17.8359 41.9166ZM13.5836 53.3536C13.4796 54.3648 13.4353 55.3966 13.4556 56.4437L11.456 56.4825C11.4341 55.3536 11.4818 54.2404 11.5941 53.1489L13.5836 53.3536ZM13.4463 56.3257C13.5905 57.3651 13.7433 58.3884 13.9044 59.396L11.9295 59.7118C11.7662 58.6904 11.6114 57.6534 11.4653 56.6006L13.4463 56.3257ZM14.9875 65.3381C15.405 67.3659 15.8593 69.3226 16.3488 71.2102L14.4129 71.7123C13.9145 69.7906 13.4526 67.8009 13.0286 65.7413L14.9875 65.3381ZM18.0433 77.0483C18.6847 79.0323 19.3692 80.9296 20.0945 82.7433L18.2375 83.4859C17.4948 81.6286 16.795 79.6887 16.1403 77.6634L18.0433 77.0483ZM22.546 88.2551C23.4631 90.1135 24.4291 91.8688 25.4402 93.5256L23.733 94.5674C22.6898 92.8579 21.6951 91.0502 20.7525 89.1402L22.546 88.2551ZM28.8183 98.4875C30.0662 100.131 31.3672 101.655 32.7163 103.066L31.2705 104.448C29.8683 102.981 28.5183 101.399 27.2256 99.6971L28.8183 98.4875ZM37.1092 107.14C38.677 108.424 40.2963 109.585 41.9608 110.63L40.8972 112.324C39.1625 111.234 37.4751 110.025 35.8418 108.687L37.1092 107.14ZM47.2175 113.49C49.0342 114.338 50.8939 115.071 52.7898 115.698L52.162 117.597C50.1949 116.946 48.2622 116.185 46.3717 115.303L47.2175 113.49ZM58.5856 117.269C60.5371 117.69 62.5179 118.014 64.5211 118.249L64.2876 120.235C62.2251 119.993 60.1816 119.659 58.1643 119.224L58.5856 117.269ZM70.5337 118.697C72.5362 118.765 74.5532 118.755 76.5783 118.677L76.6558 120.675C74.5857 120.755 72.5202 120.765 70.4664 120.696L70.5337 118.697ZM82.6139 118.248C84.6183 118.044 86.6237 117.78 88.6238 117.466L88.9347 119.441C86.9012 119.761 84.8597 120.03 82.8166 120.238L82.6139 118.248ZM94.5932 116.376C96.5814 115.966 98.5574 115.511 100.515 115.021L101.001 116.961C99.0183 117.458 97.0151 117.918 94.9978 118.335L94.5932 116.376ZM106.386 113.433C108.352 112.863 110.292 112.264 112.197 111.644L112.816 113.546C110.891 114.172 108.931 114.777 106.943 115.354L106.386 113.433ZM117.961 109.675C119.916 108.977 121.823 108.266 123.674 107.552L124.394 109.419C122.529 110.138 120.606 110.855 118.634 111.559L117.961 109.675ZM129.334 105.298C130.288 104.907 131.222 104.518 132.135 104.134L132.911 105.977C131.993 106.364 131.053 106.755 130.093 107.149L129.334 105.298Z" fill="#BFF747"/>
</svg>
