<svg width="146" height="111" viewBox="0 0 146 111" fill="none" xmlns="http://www.w3.org/2000/svg">
<path d="M127.213 55.6621L128.172 55.3774L128.189 55.4342L128.199 55.4927L127.213 55.6621ZM95.6843 73.9962L94.9753 74.7013L94.9045 74.6302L94.8494 74.5464L95.6843 73.9962ZM131.355 58.375L130.576 59.0027L130.564 58.9877L130.553 58.9722L131.355 58.375ZM140.034 110.112L134.405 100.03L145.951 100.196L140.034 110.112ZM139.003 100.182C138.941 98.0071 138.842 95.7953 138.704 93.5787L140.7 93.4545C140.84 95.6941 140.94 97.9283 141.003 100.125L139.003 100.182ZM138.175 86.9944C137.954 84.7709 137.69 82.5767 137.381 80.4453L139.36 80.1582C139.674 82.3222 139.941 84.5463 140.165 86.7964L138.175 86.9944ZM136.252 73.9647C135.781 71.6949 135.247 69.5621 134.648 67.6163L136.559 67.0275C137.181 69.045 137.729 71.2402 138.21 73.5585L136.252 73.9647ZM132.265 61.629C131.729 60.6114 131.165 59.7326 130.576 59.0027L132.133 57.7473C132.82 58.5988 133.452 59.5913 134.034 60.6962L132.265 61.629ZM130.553 58.9722C129.915 58.1158 129.275 57.3122 128.635 56.5592L130.158 55.2634C130.828 56.0507 131.494 56.8882 132.157 57.7778L130.553 58.9722ZM124.314 52.2228C122.617 50.7976 120.933 49.6981 119.285 48.8822L120.172 47.0897C121.976 47.9825 123.792 49.1728 125.6 50.6911L124.314 52.2228ZM113.626 47.1082C111.577 46.8335 109.61 46.9686 107.766 47.4324L107.278 45.4929C109.363 44.9684 111.586 44.8168 113.892 45.126L113.626 47.1082ZM102.407 49.8914C100.777 51.0194 99.3297 52.4244 98.1188 54.0159L96.5271 52.8048C97.8585 51.055 99.4568 49.501 101.268 48.247L102.407 49.8914ZM95.2554 59.2489C94.5664 61.1398 94.1815 63.1143 94.1488 65.074L92.1491 65.0406C92.1858 62.843 92.6167 60.6488 93.3762 58.5643L95.2554 59.2489ZM95.1657 70.8416C95.5187 71.7373 95.9677 72.6089 96.5193 73.4459L94.8494 74.5464C94.2207 73.5925 93.7081 72.5976 93.3051 71.575L95.1657 70.8416ZM96.3934 73.291C97.166 74.0679 97.9368 74.7715 98.7038 75.4055L97.4295 76.947C96.6098 76.2694 95.7911 75.5217 94.9753 74.7013L96.3934 73.291ZM103.878 78.709C105.896 79.6275 107.851 80.0927 109.707 80.182L109.61 82.1797C107.485 82.0774 105.282 81.5454 103.049 80.5293L103.878 78.709ZM115.557 79.1621C117.38 78.4057 119.055 77.2571 120.523 75.7933L121.935 77.2094C120.3 78.8408 118.409 80.1441 116.323 81.0094L115.557 79.1621ZM124.08 70.8519C124.985 69.08 125.672 67.1252 126.097 65.0515L128.056 65.4535C127.596 67.699 126.85 69.825 125.861 71.7614L124.08 70.8519ZM126.565 58.9058C126.516 57.8905 126.405 56.8637 126.228 55.8315L128.199 55.4927C128.39 56.6055 128.51 57.7132 128.563 58.8092L126.565 58.9058ZM126.254 55.9468C125.956 54.9409 125.651 53.9522 125.34 52.9803L127.245 52.3713C127.56 53.3565 127.869 54.3585 128.172 55.3774L126.254 55.9468ZM123.376 47.2684C122.659 45.3264 121.916 43.4602 121.148 41.6675L122.987 40.8802C123.768 42.7052 124.524 44.6028 125.252 46.5754L123.376 47.2684ZM118.595 36.1504C117.663 34.2853 116.701 32.5124 115.712 30.8283L117.436 29.8151C118.45 31.5397 119.433 33.3523 120.384 35.2563L118.595 36.1504ZM112.46 25.7475C111.274 24.048 110.055 22.4579 108.806 20.9718L110.338 19.6852C111.626 21.2185 112.881 22.8562 114.1 24.6029L112.46 25.7475ZM104.721 16.5739C103.24 15.137 101.725 13.8258 100.179 12.6332L101.401 11.0497C103.008 12.2894 104.58 13.6501 106.114 15.1387L104.721 16.5739ZM95.2241 9.26607C93.4811 8.23201 91.7057 7.32779 89.9031 6.54448L90.7001 4.71016C92.5788 5.5265 94.4288 6.46878 96.2446 7.54598L95.2241 9.26607ZM84.2762 4.50653C82.3527 3.9413 80.404 3.49607 78.4354 3.16134L78.7707 1.18964C80.8133 1.53696 82.8385 1.99948 84.8401 2.58766L84.2762 4.50653ZM72.4693 2.47873C70.4768 2.35633 68.4698 2.33389 66.454 2.40211L66.3863 0.403254C68.4618 0.333018 70.5323 0.355976 72.592 0.48249L72.4693 2.47873ZM60.4423 2.86268C58.4525 3.09687 56.4598 3.4094 54.4694 3.79135L54.0925 1.82719C56.1271 1.43675 58.1676 1.1166 60.2085 0.876394L60.4423 2.86268ZM48.5668 5.1221C46.6158 5.62525 44.6728 6.18704 42.7428 6.79883L42.1384 4.89232C44.1008 4.27029 46.0788 3.6983 48.0674 3.18547L48.5668 5.1221ZM37.0048 8.77262C35.1009 9.47751 33.2156 10.2238 31.3542 11.0026L30.5822 9.15764C32.4675 8.3688 34.3787 7.61222 36.3105 6.89703L37.0048 8.77262ZM25.7881 13.4552C23.9299 14.3142 22.1027 15.198 20.3122 16.097L19.4148 14.3096C21.2231 13.4017 23.0697 12.5084 24.9489 11.6398L25.7881 13.4552ZM14.909 18.9093C13.0815 19.8932 11.3029 20.8829 9.58 21.8667L8.58825 20.1299C10.3242 19.1386 12.1174 18.1408 13.9609 17.1483L14.909 18.9093ZM4.32306 24.9456C3.43876 25.476 2.57381 26.0006 1.72936 26.5176L0.685097 24.8119C1.53433 24.292 2.40451 23.7641 3.29444 23.2304L4.32306 24.9456Z" fill="#BFF747"/>
</svg>
