<svg width="16" height="17" viewBox="0 0 16 17" fill="none" xmlns="http://www.w3.org/2000/svg">
<path d="M15.229 10.7788L10.4624 8.91591L15.2705 7.05307C15.5192 6.97027 15.685 6.6805 15.6435 6.43212C15.5606 5.89396 15.3119 5.3972 15.0218 4.94184C14.7731 4.44508 14.4415 4.03111 14.027 3.65854C13.8198 3.49296 13.5296 3.49296 13.3224 3.65854L9.30179 6.88748L10.1308 1.79569C10.2137 1.50592 10.0479 1.25754 9.79918 1.17474C9.30178 0.967761 8.72149 0.884968 8.18265 0.926365C7.64381 0.884968 7.06352 0.967761 6.56613 1.17474C6.31743 1.25754 6.15163 1.54731 6.23453 1.79569L7.06352 6.88748L3.04293 3.65854C2.83568 3.45156 2.54553 3.45156 2.33829 3.65854C1.92379 3.98971 1.5922 4.44508 1.3435 4.94184C1.01191 5.3972 0.804658 5.89396 0.68031 6.43212C0.63886 6.72189 0.804659 6.97027 1.05335 7.05307L5.77859 8.91591L0.970456 10.7788C0.721759 10.8616 0.555963 11.1513 0.597412 11.3997C0.680311 11.9379 0.887558 12.4346 1.21915 12.89C1.46785 13.3868 1.79944 13.8007 2.21394 14.1733C2.42118 14.3389 2.71133 14.3389 2.91858 14.1733L6.93917 10.9444L6.11018 16.0361C6.02728 16.3259 6.19308 16.5743 6.44178 16.6985C6.98062 16.8641 7.51946 16.9469 8.0583 16.9055C8.59715 16.9469 9.17744 16.8641 9.67483 16.6985C9.92353 16.6157 10.0893 16.3259 10.0064 16.0361L9.17744 10.9444L13.198 14.1733C13.4053 14.3389 13.6954 14.3389 13.9441 14.1733C14.3586 13.8421 14.6902 13.4281 14.9389 12.9314C15.2705 12.476 15.4777 11.9793 15.6021 11.4411C15.6435 11.1099 15.5192 10.8616 15.229 10.7788Z" fill="#BFF747"/>
</svg>
