<svg width="60" height="61" viewBox="0 0 60 61" fill="none" xmlns="http://www.w3.org/2000/svg">
<path d="M19.2757 56.1138C28.7434 56.1138 36.4185 48.4387 36.4185 38.971C36.4185 29.5032 28.7434 21.8281 19.2757 21.8281C9.80793 21.8281 2.13281 29.5032 2.13281 38.971C2.13281 48.4387 9.80793 56.1138 19.2757 56.1138Z" stroke="#BFF747" stroke-width="2" stroke-linecap="round" stroke-linejoin="round"/>
<path d="M40.6975 56.1138C50.1653 56.1138 57.8404 48.4387 57.8404 38.971C57.8404 29.5032 50.1653 21.8281 40.6975 21.8281C31.2298 21.8281 23.5547 29.5032 23.5547 38.971C23.5547 48.4387 31.2298 56.1138 40.6975 56.1138Z" stroke="#BFF747" stroke-width="2" stroke-linecap="round" stroke-linejoin="round"/>
<path d="M29.9866 38.9693C39.4543 38.9693 47.1295 31.2942 47.1295 21.8265C47.1295 12.3587 39.4543 4.68359 29.9866 4.68359C20.5189 4.68359 12.8438 12.3587 12.8438 21.8265C12.8438 31.2942 20.5189 38.9693 29.9866 38.9693Z" stroke="#BFF747" stroke-width="2" stroke-linecap="round" stroke-linejoin="round"/>
</svg>
