<svg width="30" height="30" viewBox="0 0 30 30" fill="none" xmlns="http://www.w3.org/2000/svg">
<path d="M24.1406 1.40625L5.85938 1.40625C3.1411 1.40625 0.9375 3.60985 0.9375 6.32812L0.9375 23.6719C0.9375 26.3902 3.1411 28.5938 5.85937 28.5938H24.1406C26.8589 28.5938 29.0625 26.3902 29.0625 23.6719V6.32813C29.0625 3.60985 26.8589 1.40625 24.1406 1.40625Z" fill="#330000"/>
<path d="M15.0924 18.2802H10.8983L9.81548 21.4068C9.80298 21.5099 9.73775 21.5615 9.61978 21.5615H7.65103C7.51978 21.5615 7.47407 21.497 7.51392 21.3681L11.3131 10.0841C11.4204 9.74055 11.4734 9.38233 11.4702 9.0224C11.468 9.00651 11.4696 8.99035 11.4748 8.97516C11.4799 8.95998 11.4885 8.94618 11.4998 8.93484C11.5111 8.92351 11.5249 8.91494 11.5401 8.9098C11.5553 8.90466 11.5715 8.90309 11.5874 8.90522H14.3436C14.4233 8.90522 14.469 8.93803 14.4819 9.00131L18.7334 21.388C18.7733 21.5052 18.7405 21.5615 18.635 21.5615H16.4307C16.3899 21.5639 16.3494 21.554 16.3143 21.5331C16.2792 21.5122 16.2511 21.4813 16.2338 21.4443L15.0924 18.2802ZM11.367 16.1708H14.6342C14.5557 15.9986 13.0862 11.2572 12.9807 10.8576H12.962L11.367 16.1708Z" fill="#FF9A00"/>
<path d="M21.085 11.2479C20.9003 11.2558 20.7158 11.2266 20.5425 11.162C20.3692 11.0974 20.2106 10.9987 20.0761 10.8718C19.9444 10.7379 19.8421 10.5782 19.7755 10.4027C19.7089 10.2271 19.6796 10.0397 19.6893 9.85222C19.6806 9.66238 19.7114 9.47279 19.7798 9.29547C19.8482 9.11815 19.9527 8.95697 20.0866 8.82215C20.2222 8.69306 20.3823 8.59235 20.5574 8.52595C20.7324 8.45954 20.919 8.42876 21.1061 8.43543C21.2936 8.42566 21.481 8.455 21.6566 8.52158C21.8321 8.58815 21.9918 8.69051 22.1257 8.82215C22.2538 8.96016 22.353 9.12236 22.4176 9.29924C22.4822 9.47613 22.5109 9.66413 22.5018 9.85222C22.5116 10.0397 22.4823 10.2271 22.4157 10.4027C22.3491 10.5782 22.2467 10.7379 22.1151 10.8718C21.9771 10.9999 21.8149 11.0991 21.638 11.1637C21.4611 11.2283 21.2731 11.2569 21.085 11.2479Z" fill="#FF9A00"/>
<path d="M19.9234 21.3863V12.3441C19.9202 12.3227 19.9221 12.3009 19.9289 12.2804C19.9356 12.2599 19.9471 12.2413 19.9624 12.226C19.9776 12.2108 19.9963 12.1993 20.0168 12.1925C20.0372 12.1858 20.059 12.1839 20.0804 12.187H22.1101C22.1314 12.1841 22.1531 12.1862 22.1735 12.193C22.1938 12.1999 22.2123 12.2114 22.2275 12.2266C22.2428 12.2418 22.2542 12.2603 22.2611 12.2807C22.268 12.3011 22.27 12.3228 22.2671 12.3441V21.405C22.2703 21.4264 22.2684 21.4482 22.2616 21.4686C22.2548 21.4891 22.2434 21.5078 22.2281 21.523C22.2128 21.5383 22.1942 21.5498 22.1737 21.5565C22.1532 21.5633 22.1314 21.5652 22.1101 21.562H20.0991C20.0753 21.5653 20.051 21.5631 20.0282 21.5554C20.0053 21.5477 19.9846 21.5349 19.9675 21.5179C19.9505 21.5008 19.9377 21.4801 19.93 21.4572C19.9223 21.4344 19.9201 21.4101 19.9234 21.3863Z" fill="#FF9A00"/>
</svg>
