<svg width="30" height="31" viewBox="0 0 30 31" fill="none" xmlns="http://www.w3.org/2000/svg">
<path d="M27.5559 22.4391C26.7366 21.7519 21.9309 18.7087 21.1322 18.8484C20.7572 18.915 20.4703 19.2347 19.7025 20.1506C19.3474 20.6015 18.9575 21.0237 18.5362 21.4134C17.7645 21.227 17.0174 20.9501 16.3106 20.5884C13.5387 19.2389 11.2993 16.9989 9.95063 14.2266C9.58897 13.5198 9.31206 12.7727 9.12563 12.0009C9.51537 11.5797 9.93761 11.1898 10.3884 10.8347C11.3034 10.0669 11.6241 9.78187 11.6906 9.405C11.8303 8.60437 8.78438 3.80063 8.1 2.98125C7.81313 2.64188 7.5525 2.41406 7.21875 2.41406C6.25125 2.41406 1.875 7.82531 1.875 8.52656C1.875 8.58375 1.96875 14.2172 9.08344 21.4556C16.3219 28.5703 21.9553 28.6641 22.0125 28.6641C22.7137 28.6641 28.125 24.2878 28.125 23.3203C28.125 22.9866 27.8972 22.7259 27.5559 22.4391Z" fill="black"/>
<path d="M21.5625 14.6016H23.4375C23.4353 12.6131 22.6444 10.7068 21.2383 9.30073C19.8323 7.89469 17.9259 7.1038 15.9375 7.10156V8.97656C17.4289 8.97805 18.8588 9.57116 19.9133 10.6257C20.9679 11.6803 21.561 13.1102 21.5625 14.6016Z" fill="black"/>
<path d="M26.25 14.6016H28.125C28.1213 11.3704 26.836 8.2726 24.5513 5.98781C22.2665 3.70302 19.1687 2.41778 15.9375 2.41406V4.28906C18.6716 4.29229 21.2927 5.37982 23.226 7.31309C25.1592 9.24636 26.2468 11.8675 26.25 14.6016Z" fill="black"/>
</svg>
