<svg width="40" height="41" viewBox="0 0 40 41" fill="none" xmlns="http://www.w3.org/2000/svg">
<g clip-path="url(#clip0_1633_2749)">
<path d="M20.0011 38.762C30.2578 38.762 38.5725 30.4473 38.5725 20.1906C38.5725 9.93385 30.2578 1.61914 20.0011 1.61914C9.7444 1.61914 1.42969 9.93385 1.42969 20.1906C1.42969 30.4473 9.7444 38.762 20.0011 38.762Z" stroke="#BFF747" stroke-width="1.5" stroke-linecap="round" stroke-linejoin="round"/>
<path d="M19.9964 1.61914C19.9964 1.61914 8.36781 11.8763 19.9964 20.1906C29.9964 27.3334 19.9964 38.762 19.9964 38.762" stroke="#BFF747" stroke-width="1.5" stroke-linecap="round" stroke-linejoin="round"/>
<path d="M25.7165 15.9057C27.2945 15.9057 28.5737 14.6265 28.5737 13.0485C28.5737 11.4706 27.2945 10.1914 25.7165 10.1914C24.1386 10.1914 22.8594 11.4706 22.8594 13.0485C22.8594 14.6265 24.1386 15.9057 25.7165 15.9057Z" stroke="#BFF747" stroke-width="1.5" stroke-linecap="round" stroke-linejoin="round"/>
<path d="M14.2868 30.1908C15.8648 30.1908 17.144 28.9117 17.144 27.3337C17.144 25.7557 15.8648 24.4766 14.2868 24.4766C12.7089 24.4766 11.4297 25.7557 11.4297 27.3337C11.4297 28.9117 12.7089 30.1908 14.2868 30.1908Z" stroke="#BFF747" stroke-width="1.5" stroke-linecap="round" stroke-linejoin="round"/>
</g>
<defs>
<clipPath id="clip0_1633_2749">
<rect width="40" height="40" fill="white" transform="translate(0 0.191406)"/>
</clipPath>
</defs>
</svg>
