<svg width="41" height="41" viewBox="0 0 41 41" fill="none" xmlns="http://www.w3.org/2000/svg">
<path d="M20.5246 38.9983C30.7813 38.9983 39.096 30.6836 39.096 20.4269C39.096 10.1702 30.7813 1.85547 20.5246 1.85547C10.2678 1.85547 1.95312 10.1702 1.95312 20.4269C1.95312 30.6836 10.2678 38.9983 20.5246 38.9983Z" stroke="#BFF747" stroke-width="1.5" stroke-linecap="round" stroke-linejoin="round"/>
<path d="M20.5198 1.85547C20.5198 1.85547 8.89124 12.1126 20.5198 20.4269C30.5198 27.5698 20.5198 38.9983 20.5198 38.9983" stroke="#BFF747" stroke-width="1.5" stroke-linecap="round" stroke-linejoin="round"/>
<path d="M26.24 16.142C27.8179 16.142 29.0971 14.8628 29.0971 13.2849C29.0971 11.7069 27.8179 10.4277 26.24 10.4277C24.662 10.4277 23.3828 11.7069 23.3828 13.2849C23.3828 14.8628 24.662 16.142 26.24 16.142Z" stroke="#BFF747" stroke-width="1.5" stroke-linecap="round" stroke-linejoin="round"/>
<path d="M14.8103 30.4272C16.3882 30.4272 17.6674 29.148 17.6674 27.57C17.6674 25.9921 16.3882 24.7129 14.8103 24.7129C13.2323 24.7129 11.9531 25.9921 11.9531 27.57C11.9531 29.148 13.2323 30.4272 14.8103 30.4272Z" stroke="#BFF747" stroke-width="1.5" stroke-linecap="round" stroke-linejoin="round"/>
</svg>
