<svg width="41" height="40" viewBox="0 0 41 40" fill="none" xmlns="http://www.w3.org/2000/svg">
<path d="M36.9111 28.7766C35.8385 27.877 29.5475 23.8933 28.502 24.0763C28.011 24.1633 27.6355 24.5818 26.6304 25.7809C26.1656 26.371 25.655 26.9238 25.1037 27.434C24.0934 27.1899 23.1155 26.8274 22.1901 26.354C18.5615 24.5873 15.6301 21.655 13.8645 18.0258C13.3911 17.1006 13.0286 16.1227 12.7845 15.1124C13.2947 14.561 13.8475 14.0505 14.4376 13.5857C15.6355 12.5806 16.0551 12.2075 16.1423 11.7141C16.3251 10.666 12.3378 4.3776 11.4419 3.30498C11.0664 2.86071 10.7252 2.5625 10.2883 2.5625C9.02179 2.5625 3.29297 9.64618 3.29297 10.5642C3.29297 10.639 3.4157 18.0136 12.7293 27.4892C22.205 36.8028 29.5795 36.9255 29.6544 36.9255C30.5724 36.9255 37.656 31.1967 37.656 29.9302C37.656 29.4933 37.3577 29.1521 36.9111 28.7766Z" fill="#BFF747"/>
<path d="M29.0666 18.5133H31.5211C31.5181 15.9103 30.4828 13.4148 28.6422 11.5742C26.8017 9.73357 24.3061 8.69824 21.7031 8.69531V11.1498C23.6554 11.1518 25.5272 11.9282 26.9077 13.3087C28.2881 14.6892 29.0646 16.561 29.0666 18.5133Z" fill="#BFF747"/>
<path d="M35.2029 18.5168H37.6574C37.6524 14.2869 35.97 10.2317 32.9791 7.24077C29.9881 4.24982 25.9329 2.56736 21.7031 2.5625V5.017C25.2821 5.02121 28.7134 6.44487 31.2443 8.97565C33.7749 11.5064 35.1986 14.9376 35.2029 18.5168Z" fill="#BFF747"/>
</svg>
