<svg width="26" height="26" viewBox="0 0 26 26" fill="none" xmlns="http://www.w3.org/2000/svg">
<g clip-path="url(#clip0_1602_1880)">
<path d="M6.42634 11.4601C9.13845 11.4601 11.3371 9.2615 11.3371 6.54939C11.3371 3.83727 9.13845 1.63867 6.42634 1.63867C3.71423 1.63867 1.51562 3.83727 1.51562 6.54939C1.51562 9.2615 3.71423 11.4601 6.42634 11.4601Z" stroke="black" stroke-width="1.5" stroke-linecap="round" stroke-linejoin="round"/>
<path d="M19.817 11.4601C22.5291 11.4601 24.7277 9.2615 24.7277 6.54939C24.7277 3.83727 22.5291 1.63867 19.817 1.63867C17.1049 1.63867 14.9062 3.83727 14.9062 6.54939C14.9062 9.2615 17.1049 11.4601 19.817 11.4601Z" stroke="black" stroke-width="1.5" stroke-linecap="round" stroke-linejoin="round"/>
<path d="M6.42634 24.8546C9.13845 24.8546 11.3371 22.656 11.3371 19.9439C11.3371 17.2318 9.13845 15.0332 6.42634 15.0332C3.71423 15.0332 1.51562 17.2318 1.51562 19.9439C1.51562 22.656 3.71423 24.8546 6.42634 24.8546Z" stroke="black" stroke-width="1.5" stroke-linecap="round" stroke-linejoin="round"/>
<path d="M19.817 24.8546C22.5291 24.8546 24.7277 22.656 24.7277 19.9439C24.7277 17.2318 22.5291 15.0332 19.817 15.0332C17.1049 15.0332 14.9062 17.2318 14.9062 19.9439C14.9062 22.656 17.1049 24.8546 19.817 24.8546Z" stroke="black" stroke-width="1.5" stroke-linecap="round" stroke-linejoin="round"/>
</g>
<defs>
<clipPath id="clip0_1602_1880">
<rect width="25" height="25" fill="white" transform="translate(0.625 0.746094)"/>
</clipPath>
</defs>
</svg>
