<svg width="41" height="41" viewBox="0 0 41 41" fill="none" xmlns="http://www.w3.org/2000/svg">
<g clip-path="url(#clip0_1655_1284)">
<path d="M20.0246 16.399C30.2813 16.399 38.596 13.201 38.596 9.25614C38.596 5.31125 30.2813 2.11328 20.0246 2.11328C9.76784 2.11328 1.45312 5.31125 1.45312 9.25614C1.45312 13.201 9.76784 16.399 20.0246 16.399Z" stroke="#BFF747" stroke-width="1.5" stroke-linecap="round" stroke-linejoin="round"/>
<path d="M1.45312 9.25586V32.113C1.45312 36.0559 9.76741 39.2559 20.0246 39.2559C30.2817 39.2559 38.596 36.0559 38.596 32.113V9.25586" stroke="#BFF747" stroke-width="1.5" stroke-linecap="round" stroke-linejoin="round"/>
<path d="M38.596 20.6855C38.596 24.6284 30.2817 27.8284 20.0246 27.8284C9.76741 27.8284 1.45312 24.6284 1.45312 20.6855" stroke="#BFF747" stroke-width="1.5" stroke-linecap="round" stroke-linejoin="round"/>
</g>
<defs>
<clipPath id="clip0_1655_1284">
<rect width="40" height="40" fill="white" transform="translate(0.0234375 0.685547)"/>
</clipPath>
</defs>
</svg>
