<svg width="41" height="41" viewBox="0 0 41 41" fill="none" xmlns="http://www.w3.org/2000/svg">
<g clip-path="url(#clip0_1555_927)">
<path d="M7.75523 0.689453H33.5886C37.5052 0.689453 40.6719 3.85609 40.6719 7.77281V32.6062C40.6719 36.5228 37.5052 39.6895 33.5885 39.6895H7.75523C3.83852 39.6895 0.671875 36.5228 0.671875 32.6061V7.77281C0.671875 3.85609 3.83852 0.689453 7.75523 0.689453Z" fill="#001834"/>
<path d="M9.67188 28.0388V10.8888C9.67188 10.7722 9.72188 10.7055 9.83852 10.7055C10.1219 10.7055 10.3885 10.7055 10.7719 10.6888C11.1719 10.6722 11.5885 10.6722 12.0385 10.6555C12.4885 10.6388 12.9719 10.6388 13.4885 10.6221C14.0052 10.6055 14.5052 10.6055 15.0052 10.6055C16.3718 10.6055 17.5052 10.7721 18.4385 11.1221C19.2719 11.4055 20.0385 11.8721 20.6719 12.4888C21.2052 13.0221 21.6219 13.6721 21.8885 14.3888C22.1385 15.0888 22.2719 15.8054 22.2719 16.5554C22.2719 17.9888 21.9385 19.172 21.2719 20.1054C20.6052 21.0388 19.6719 21.7388 18.5885 22.1388C17.4552 22.5554 16.2052 22.7054 14.8385 22.7054C14.4385 22.7054 14.1719 22.7054 14.0052 22.6888C13.8385 22.6721 13.6052 22.6721 13.2885 22.6721V28.0221C13.3052 28.1388 13.2219 28.2388 13.1052 28.2555C13.0885 28.2555 13.0718 28.2555 13.0385 28.2555H9.87188C9.73852 28.2555 9.67188 28.1888 9.67188 28.0388ZM13.3052 13.9222V19.5222C13.5386 19.5388 13.7552 19.5555 13.9552 19.5555H14.8386C15.9895 19.5555 17.3186 19.2851 18.1219 18.3723C18.8132 17.5866 18.8152 16.0287 18.2552 15.1723C17.5905 14.1556 16.2613 13.8611 15.1219 13.8889C14.6885 13.8889 14.3052 13.8889 13.9885 13.9055C13.6552 13.8888 13.4219 13.9055 13.3052 13.9222Z" fill="#00A9FF"/>
<path d="M32.6734 18.5049C32.1734 18.2383 31.6401 18.0549 31.0734 17.9383C30.4568 17.8049 29.8401 17.7216 29.2068 17.7216C28.8734 17.705 28.5234 17.755 28.2068 17.8383C27.9902 17.8883 27.8068 18.0049 27.6902 18.1716C27.6068 18.305 27.5568 18.4716 27.5568 18.6216C27.5568 18.7716 27.6234 18.9216 27.7234 19.055C27.8734 19.2384 28.0734 19.3884 28.2901 19.505C28.6734 19.705 29.0734 19.8884 29.4734 20.055C30.3734 20.355 31.2401 20.7716 32.0401 21.2716C32.5901 21.6216 33.0401 22.0883 33.3567 22.655C33.6234 23.1884 33.7567 23.7716 33.7401 24.3716C33.7567 25.155 33.5234 25.9383 33.0901 26.5883C32.6234 27.2549 31.9734 27.7716 31.2234 28.0716C30.4068 28.4216 29.4068 28.605 28.2068 28.605C27.4402 28.605 26.6902 28.5384 25.9402 28.3884C25.3568 28.2884 24.7735 28.105 24.2402 27.855C24.1235 27.7884 24.0402 27.6716 24.0568 27.5384V24.6384C24.0568 24.5884 24.0734 24.5217 24.1234 24.4884C24.1734 24.455 24.2234 24.4717 24.2734 24.505C24.9234 24.8884 25.6068 25.155 26.3401 25.3216C26.9734 25.4883 27.6401 25.5716 28.3067 25.5716C28.9401 25.5716 29.3901 25.4883 29.6901 25.3383C29.9567 25.2216 30.1401 24.9383 30.1401 24.6383C30.1401 24.4049 30.0067 24.1883 29.7401 23.9716C29.4734 23.755 28.9234 23.505 28.1067 23.1883C27.2567 22.8883 26.4734 22.4883 25.7401 21.9883C25.2234 21.6216 24.7901 21.1383 24.4734 20.5716C24.2068 20.0383 24.0734 19.455 24.0901 18.8716C24.0901 18.155 24.2901 17.4716 24.6567 16.855C25.0734 16.1884 25.6901 15.655 26.4067 15.3216C27.1901 14.9216 28.1734 14.7383 29.3567 14.7383C30.0401 14.7383 30.7401 14.7883 31.4234 14.8883C31.9234 14.9549 32.4067 15.0883 32.8567 15.2716C32.9234 15.2883 32.9901 15.355 33.0234 15.4216C33.04 15.4883 33.0567 15.555 33.0567 15.6216V18.3383C33.0567 18.4049 33.0234 18.4716 32.9734 18.5049C32.8234 18.5383 32.7401 18.5383 32.6734 18.5049Z" fill="#00A9FF"/>
</g>
<defs>
<clipPath id="clip0_1555_927">
<rect width="40" height="40" fill="white" transform="translate(0.671875 0.189453)"/>
</clipPath>
</defs>
</svg>
