<svg width="41" height="41" viewBox="0 0 41 41" fill="none" xmlns="http://www.w3.org/2000/svg">
<g clip-path="url(#clip0_1655_1270)">
<path d="M12.8739 37.3747C19.1857 37.3747 24.3025 32.258 24.3025 25.9461C24.3025 19.6343 19.1857 14.5176 12.8739 14.5176C6.56206 14.5176 1.44531 19.6343 1.44531 25.9461C1.44531 32.258 6.56206 37.3747 12.8739 37.3747Z" stroke="#BFF747" stroke-width="1.5" stroke-linecap="round" stroke-linejoin="round"/>
<path d="M27.1551 37.3747C33.467 37.3747 38.5837 32.258 38.5837 25.9461C38.5837 19.6343 33.467 14.5176 27.1551 14.5176C20.8433 14.5176 15.7266 19.6343 15.7266 25.9461C15.7266 32.258 20.8433 37.3747 27.1551 37.3747Z" stroke="#BFF747" stroke-width="1.5" stroke-linecap="round" stroke-linejoin="round"/>
<path d="M20.0145 25.945C26.3263 25.945 31.4431 20.8283 31.4431 14.5165C31.4431 8.20464 26.3263 3.08789 20.0145 3.08789C13.7027 3.08789 8.58594 8.20464 8.58594 14.5165C8.58594 20.8283 13.7027 25.945 20.0145 25.945Z" stroke="#BFF747" stroke-width="1.5" stroke-linecap="round" stroke-linejoin="round"/>
</g>
<defs>
<clipPath id="clip0_1655_1270">
<rect width="40" height="40" fill="white" transform="translate(0.0234375 0.230469)"/>
</clipPath>
</defs>
</svg>
