<svg width="40" height="41" viewBox="0 0 40 41" fill="none" xmlns="http://www.w3.org/2000/svg">
<path d="M19.9989 26.0935C23.5493 26.0935 26.4275 23.2153 26.4275 19.6649C26.4275 16.1145 23.5493 13.2363 19.9989 13.2363C16.4485 13.2363 13.5703 16.1145 13.5703 19.6649C13.5703 23.2153 16.4485 26.0935 19.9989 26.0935Z" stroke="#BFF747" stroke-width="1.5" stroke-linecap="round" stroke-linejoin="round"/>
<path d="M31.4275 38.9494C30.3458 36.8507 28.7072 35.0904 26.6913 33.8615C24.6753 32.6325 22.3599 31.9824 19.9989 31.9824C17.6379 31.9824 15.3225 32.6325 13.3065 33.8615C11.2906 35.0904 9.65194 36.8507 8.57031 38.9494" stroke="#BFF747" stroke-width="1.5" stroke-linecap="round" stroke-linejoin="round"/>
<path d="M34.2864 30.5503C36.3139 27.9057 37.561 24.7466 37.8867 21.4302C38.2123 18.1138 37.6034 14.7724 36.1289 11.784C34.6545 8.79561 32.3732 6.27941 29.5432 4.51999C26.7132 2.76057 23.4473 1.82813 20.115 1.82812C16.7826 1.82813 13.5167 2.76057 10.6867 4.51999C7.8567 6.27941 5.57545 8.79561 4.10098 11.784C2.62651 14.7724 2.01766 18.1138 2.34328 21.4302C2.6689 24.7466 3.916 27.9057 5.94354 30.5503" stroke="#BFF747" stroke-width="1.5" stroke-linecap="round" stroke-linejoin="round"/>
</svg>
