<svg width="31" height="31" viewBox="0 0 31 31" fill="none" xmlns="http://www.w3.org/2000/svg">
<g clip-path="url(#clip0_236_38)">
<path d="M6.19338 0.78125H25.5684C28.5059 0.78125 30.8809 3.15623 30.8809 6.09377V24.7188C30.8809 27.6563 28.5059 30.0313 25.5683 30.0313H6.19338C3.25584 30.0313 0.880859 27.6563 0.880859 24.7187V6.09377C0.880859 3.15623 3.25584 0.78125 6.19338 0.78125Z" fill="#001834"/>
<path d="M7.63086 21.2938V8.43127C7.63086 8.34379 7.66836 8.29375 7.75584 8.29375C7.96836 8.29375 8.16834 8.29375 8.45586 8.28127C8.75586 8.26879 9.06834 8.26879 9.40584 8.25625C9.74334 8.24371 10.1059 8.24377 10.4933 8.23123C10.8808 8.21875 11.2558 8.21875 11.6308 8.21875C12.6558 8.21875 13.5058 8.34373 14.2058 8.60623C14.8309 8.81875 15.4058 9.16873 15.8809 9.63121C16.2809 10.0312 16.5934 10.5187 16.7933 11.0562C16.9808 11.5812 17.0809 12.1187 17.0809 12.6812C17.0809 13.7562 16.8308 14.6437 16.3309 15.3437C15.8309 16.0437 15.1309 16.5687 14.3183 16.8687C13.4683 17.1812 12.5308 17.2937 11.5058 17.2937C11.2058 17.2937 11.0059 17.2937 10.8808 17.2812C10.7558 17.2687 10.5808 17.2687 10.3433 17.2687V21.2812C10.3558 21.3687 10.2934 21.4437 10.2058 21.4562C10.1933 21.4562 10.1808 21.4562 10.1558 21.4562H7.78086C7.68084 21.4562 7.63086 21.4063 7.63086 21.2938ZM10.3559 10.7063V14.9063C10.5309 14.9188 10.6934 14.9313 10.8434 14.9313H11.5059C12.369 14.9313 13.3659 14.7285 13.9684 14.0438C14.4869 13.4546 14.4883 12.2862 14.0684 11.6438C13.5699 10.8814 12.5729 10.6605 11.7184 10.6813C11.3933 10.6813 11.1059 10.6813 10.8683 10.6938C10.6184 10.6813 10.4434 10.6938 10.3559 10.7063Z" fill="#00A9FF"/>
<path d="M24.884 14.1433C24.509 13.9434 24.109 13.8058 23.684 13.7184C23.2215 13.6183 22.759 13.5559 22.284 13.5559C22.034 13.5434 21.7715 13.5809 21.534 13.6434C21.3715 13.6809 21.234 13.7683 21.1465 13.8934C21.084 13.9934 21.0465 14.1184 21.0465 14.2309C21.0465 14.3434 21.0965 14.4559 21.1715 14.5559C21.284 14.6934 21.434 14.8059 21.5965 14.8934C21.884 15.0434 22.184 15.1809 22.484 15.3059C23.159 15.5309 23.809 15.8434 24.409 16.2184C24.8215 16.4809 25.159 16.8309 25.3965 17.2559C25.5964 17.6559 25.6965 18.0934 25.684 18.5434C25.6965 19.1309 25.5215 19.7184 25.1965 20.2059C24.8465 20.7058 24.359 21.0934 23.7965 21.3184C23.184 21.5809 22.434 21.7184 21.534 21.7184C20.959 21.7184 20.3965 21.6684 19.834 21.5559C19.3965 21.4809 18.959 21.3434 18.559 21.1559C18.4715 21.1059 18.409 21.0184 18.4215 20.9184V18.7434C18.4215 18.7059 18.434 18.6559 18.4715 18.6309C18.509 18.6059 18.5465 18.6184 18.584 18.6434C19.0715 18.9309 19.584 19.1309 20.134 19.2559C20.609 19.3809 21.109 19.4434 21.609 19.4434C22.084 19.4434 22.4215 19.3809 22.6465 19.2684C22.8465 19.1809 22.984 18.9684 22.984 18.7434C22.984 18.5683 22.884 18.4059 22.684 18.2434C22.484 18.0809 22.0715 17.8934 21.459 17.6559C20.8215 17.4309 20.2339 17.1309 19.684 16.7559C19.2965 16.4809 18.9715 16.1184 18.734 15.6934C18.534 15.2934 18.434 14.8559 18.4465 14.4184C18.4465 13.8809 18.5965 13.3684 18.8715 12.9059C19.1839 12.4059 19.6465 12.0059 20.1839 11.7559C20.7715 11.4559 21.5089 11.3184 22.3965 11.3184C22.909 11.3184 23.434 11.3559 23.9464 11.4309C24.3214 11.4808 24.684 11.5809 25.0215 11.7184C25.0714 11.7309 25.1215 11.7809 25.1464 11.8309C25.1589 11.8809 25.1715 11.9309 25.1715 11.9809V14.0184C25.1715 14.0683 25.1464 14.1184 25.1089 14.1433C24.9965 14.1684 24.934 14.1684 24.884 14.1433Z" fill="#00A9FF"/>
</g>
<defs>
<clipPath id="clip0_236_38">
<rect width="30" height="30" fill="white" transform="translate(0.880859 0.40625)"/>
</clipPath>
</defs>
</svg>
