<svg width="41" height="41" viewBox="0 0 41 41" fill="none" xmlns="http://www.w3.org/2000/svg">
<g clip-path="url(#clip0_1655_1276)">
<path d="M36.2388 2.13477H4.81027C3.23231 2.13477 1.95312 3.41395 1.95312 4.99191V36.4205C1.95312 37.9984 3.23231 39.2776 4.81027 39.2776H36.2388C37.8168 39.2776 39.096 37.9984 39.096 36.4205V4.99191C39.096 3.41395 37.8168 2.13477 36.2388 2.13477Z" stroke="#BFF747" stroke-width="1.5" stroke-linecap="round" stroke-linejoin="round"/>
<path d="M16.2109 30.8777V19.9349C16.2189 19.7667 16.2681 19.6031 16.354 19.4583C16.44 19.3136 16.5602 19.1922 16.7041 19.1047C16.848 19.0173 17.0111 18.9665 17.1792 18.9568C17.3472 18.9471 17.5151 18.9788 17.6681 19.0491L27.1538 24.5063C27.3074 24.6009 27.4342 24.7333 27.5222 24.8909C27.6102 25.0484 27.6564 25.2259 27.6564 25.4063C27.6564 25.5867 27.6102 25.7642 27.5222 25.9217C27.4342 26.0792 27.3074 26.2116 27.1538 26.3063L17.6681 31.792C17.5125 31.856 17.3439 31.8819 17.1762 31.8676C17.0086 31.8532 16.8468 31.7991 16.7043 31.7097C16.5618 31.6203 16.4427 31.4982 16.3569 31.3535C16.2711 31.2087 16.221 31.0457 16.2109 30.8777V30.8777Z" stroke="#BFF747" stroke-width="1.5" stroke-linecap="round" stroke-linejoin="round"/>
<path d="M1.95312 12.1348H39.096" stroke="#BFF747" stroke-width="1.5" stroke-linecap="round" stroke-linejoin="round"/>
<path d="M11.9531 12.1348L16.2388 2.13477" stroke="#BFF747" stroke-width="1.5" stroke-linecap="round" stroke-linejoin="round"/>
<path d="M24.8125 12.1348L29.0982 2.13477" stroke="#BFF747" stroke-width="1.5" stroke-linecap="round" stroke-linejoin="round"/>
</g>
<defs>
<clipPath id="clip0_1655_1276">
<rect width="40" height="40" fill="white" transform="translate(0.523438 0.707031)"/>
</clipPath>
</defs>
</svg>
