<svg width="41" height="41" viewBox="0 0 41 41" fill="none" xmlns="http://www.w3.org/2000/svg">
<path d="M32.5312 2.0625L8.15625 2.0625C4.53188 2.0625 1.59375 5.00063 1.59375 8.625L1.59375 31.75C1.59375 35.3744 4.53188 38.3125 8.15625 38.3125H32.5312C36.1556 38.3125 39.0938 35.3744 39.0938 31.75V8.625C39.0938 5.00063 36.1556 2.0625 32.5312 2.0625Z" fill="#470137"/>
<path d="M20.873 12.3216L16.2605 20.2466L21.2308 28.6841C21.3324 28.856 21.2887 28.9403 21.1027 28.9403H18.0027C17.926 28.9484 17.8486 28.9333 17.7806 28.8967C17.7126 28.8602 17.6571 28.8041 17.6215 28.7357L14.123 22.3185H14.0965L10.6902 28.7357C10.6589 28.7967 10.6115 28.8481 10.5531 28.8841C10.4947 28.9202 10.4276 28.9397 10.359 28.9403H7.37772C7.2074 28.9403 7.17459 28.856 7.27615 28.6841L12.1637 20.4778L7.5074 12.27C7.40584 12.1341 7.44022 12.0653 7.60897 12.0653H10.7152C10.7818 12.0606 10.8484 12.075 10.9071 12.1068C10.9658 12.1386 11.0141 12.1866 11.0465 12.245L14.3277 18.5857H14.3527L17.6168 12.245C17.649 12.1869 17.6971 12.1391 17.7555 12.1072C17.8139 12.0754 17.8801 12.0609 17.9465 12.0653H20.7715C20.959 12.0653 20.9918 12.1513 20.873 12.3216Z" fill="#FF61F6"/>
<path d="M28.4484 29.2492C26.6359 29.2492 25.2406 28.7351 24.1578 27.7085C23.075 26.682 22.5312 25.1648 22.5312 23.1554C22.5312 21.3294 23.1135 19.8294 24.2781 18.6554C24.874 18.0386 25.5905 17.5511 26.383 17.2232C27.1754 16.8952 28.0269 16.7339 28.8844 16.7492C29.2682 16.7423 29.6513 16.7833 30.025 16.871V11.5835C30.0222 11.5637 30.024 11.5435 30.0303 11.5245C30.0365 11.5055 30.0471 11.4882 30.0612 11.474C30.0753 11.4598 30.0924 11.449 30.1114 11.4425C30.1303 11.4361 30.1505 11.434 30.1703 11.4367L33.0266 11.4367C33.1062 11.4367 33.1469 11.4851 33.1469 11.5835V26.3882C33.1469 27.0132 33.4172 27.546 33.4594 28.0023C33.468 28.0475 33.4605 28.0942 33.4383 28.1345C33.416 28.1747 33.3803 28.2059 33.3375 28.2226C31.9359 28.907 30.0984 29.2492 28.4484 29.2492ZM30.0312 26.8288V19.271C29.9297 19.0929 29.3922 18.9367 28.8422 18.9367C28.387 18.9249 27.9349 19.0148 27.5189 19.2C27.1028 19.3852 26.7334 19.6608 26.4375 20.007C25.7168 20.851 25.3281 21.9285 25.3438 23.0382C25.3438 24.407 25.8125 25.3445 26.4234 25.996C26.7122 26.3272 27.0679 26.5934 27.467 26.777C27.8662 26.9607 28.2997 27.0577 28.7391 27.0617C29.3219 27.0617 29.8922 26.9742 30.0312 26.8288Z" fill="#FF61F6"/>
</svg>
