<svg width="40" height="41" viewBox="0 0 40 41" fill="none" xmlns="http://www.w3.org/2000/svg">
<path d="M32.1875 2.06445L7.8125 2.06445C4.18813 2.06445 1.25 5.00258 1.25 8.62695L1.25 31.752C1.25 35.3763 4.18813 38.3145 7.8125 38.3145H32.1875C35.8119 38.3145 38.75 35.3763 38.75 31.752V8.62695C38.75 5.00258 35.8119 2.06445 32.1875 2.06445Z" fill="#330000"/>
<path d="M20.1232 24.5637H14.5311L13.0873 28.7325C13.0706 28.87 12.9837 28.9387 12.8264 28.9387H10.2014C10.0264 28.9387 9.96543 28.8528 10.0186 28.6809L15.0842 13.6356C15.2272 13.1775 15.2979 12.6999 15.2936 12.22C15.2907 12.1988 15.2928 12.1772 15.2997 12.157C15.3065 12.1367 15.3179 12.1183 15.3331 12.1032C15.3482 12.0881 15.3666 12.0767 15.3868 12.0698C15.4071 12.063 15.4286 12.0609 15.4498 12.0637H19.1248C19.2311 12.0637 19.292 12.1075 19.3092 12.1918L24.9779 28.7075C25.0311 28.8637 24.9873 28.9387 24.8467 28.9387H21.9076C21.8532 28.942 21.7992 28.9288 21.7523 28.901C21.7055 28.8731 21.6682 28.8318 21.6451 28.7825L20.1232 24.5637ZM15.1561 21.7512H19.5123C19.4076 21.5215 17.4482 15.1997 17.3076 14.6668H17.2826L15.1561 21.7512Z" fill="#FF9A00"/>
<path d="M28.1134 15.188C27.867 15.1985 27.621 15.1596 27.3899 15.0734C27.1589 14.9873 26.9474 14.8557 26.7681 14.6864C26.5926 14.508 26.4561 14.295 26.3673 14.061C26.2785 13.8269 26.2394 13.577 26.2524 13.3271C26.2408 13.0739 26.2819 12.8211 26.3731 12.5847C26.4643 12.3483 26.6035 12.1334 26.7821 11.9536C26.963 11.7815 27.1764 11.6472 27.4098 11.5587C27.6432 11.4701 27.892 11.4291 28.1415 11.438C28.3915 11.425 28.6414 11.4641 28.8754 11.5529C29.1094 11.6416 29.3224 11.7781 29.5009 11.9536C29.6717 12.1376 29.8041 12.3539 29.8902 12.5897C29.9763 12.8256 30.0145 13.0763 30.0024 13.3271C30.0155 13.577 29.9763 13.8269 29.8876 14.061C29.7988 14.295 29.6623 14.508 29.4868 14.6864C29.3028 14.8572 29.0865 14.9896 28.8507 15.0757C28.6148 15.1619 28.3642 15.2 28.1134 15.188Z" fill="#FF9A00"/>
<path d="M26.5645 28.7051V16.6489C26.5603 16.6204 26.5628 16.5913 26.5718 16.564C26.5808 16.5367 26.5962 16.5119 26.6165 16.4915C26.6369 16.4712 26.6617 16.4558 26.689 16.4468C26.7163 16.4378 26.7454 16.4353 26.7739 16.4395H29.4801C29.5085 16.4356 29.5374 16.4384 29.5646 16.4475C29.5918 16.4567 29.6165 16.472 29.6367 16.4922C29.657 16.5125 29.6723 16.5372 29.6815 16.5644C29.6906 16.5915 29.6934 16.6205 29.6895 16.6489V28.7301C29.6937 28.7586 29.6912 28.7876 29.6822 28.815C29.6731 28.8423 29.6578 28.8671 29.6375 28.8875C29.6171 28.9078 29.5923 28.9231 29.565 28.9322C29.5376 28.9412 29.5086 28.9437 29.4801 28.9395H26.7989C26.767 28.9439 26.7346 28.9409 26.7042 28.9307C26.6738 28.9204 26.6461 28.9033 26.6234 28.8806C26.6007 28.8579 26.5835 28.8302 26.5733 28.7998C26.5631 28.7693 26.5601 28.7369 26.5645 28.7051Z" fill="#FF9A00"/>
</svg>
