<svg width="190" height="141" viewBox="0 0 190 141" fill="none" xmlns="http://www.w3.org/2000/svg">
<path d="M144.556 140.352C118.171 140.352 99.1239 118.636 99.1246 86.4814C99.2935 39.7633 134.523 6.73232 185.346 0.38902C190.061 -0.199485 191.879 6.31214 187.537 8.23691C168.036 16.8815 158.187 27.851 156.914 38.7087C155.964 46.8207 160.387 53.9266 165.942 55.2572C180.341 58.7067 189.989 76.5833 189.989 95.0592C189.989 120.074 169.648 140.352 144.556 140.352Z" fill="white" fill-opacity="0.06"/>
<path d="M45.4354 140.352C19.0497 140.352 0.00283188 118.636 0.00346711 86.4814C0.17245 39.7633 35.4016 6.73232 86.2246 0.38902C90.9398 -0.199485 92.7579 6.31214 88.4158 8.23691C68.9146 16.8815 59.0655 27.851 57.7933 38.7087C56.8429 46.8207 61.2663 53.9266 66.8207 55.2572C81.2202 58.7067 90.868 76.5833 90.868 95.0592C90.868 120.074 70.5271 140.352 45.4354 140.352Z" fill="white" fill-opacity="0.06"/>
</svg>
